<?xml version="1.0" encoding="utf-8"?>
<!-- Generator: Adobe Illustrator 26.3.1, SVG Export Plug-In . SVG Version: 6.00 Build 0)  -->
<svg version="1.1" xmlns="http://www.w3.org/2000/svg" xmlns:xlink="http://www.w3.org/1999/xlink" x="0px" y="0px"
	 viewBox="0 0 320 500" style="enable-background:new 0 0 320 500;" xml:space="preserve">
<style type="text/css">
	.st0{fill:none;stroke:#594A42;stroke-miterlimit:10;}
	.st1{fill:none;stroke:#231F20;stroke-miterlimit:10;}
	.st2{fill:#FFFFFF;stroke:#231F20;stroke-miterlimit:10;}
	.st3{fill:#594A42;}
	.st4{fill:none;}
	.st5{fill:#A97C50;stroke:#231F20;stroke-miterlimit:10;}
	.st6{fill:#603913;stroke:#231F20;stroke-miterlimit:10;}
	.st7{fill:#2E3192;stroke:#231F20;stroke-miterlimit:10;}
	.st8{opacity:0.28;}
	.st9{fill:#BE1E2D;stroke:#231F20;stroke-miterlimit:10;}
	.st10{fill:#8B5E3C;stroke:#231F20;stroke-miterlimit:10;}
</style>
<g id="line_on_jeans">
	<line class="st0" x1="76.72" y1="305.76" x2="98.34" y2="343.59"/>
	<line class="st1" x1="86.09" y1="316.2" x2="106.31" y2="338.26"/>
	<path class="st2" d="M80.1,299.23c31.19,59.33,134.44-13.79,134.44-13.79s35.11-4.68,40.42,23.93c5.31,28.61-3.03,80.78-3.03,80.78
		l0,0"/>
</g>
<g id="book_color">
	<g>
		<g>
			<path class="st3" d="M165.5,238.03c18.79,1.15,37.66,0.07,56.21-3.11c1.33-0.23,2.08-1.87,1.75-3.08
				c-0.39-1.41-1.74-1.97-3.08-1.75c-18.11,3.1-36.55,4.05-54.88,2.93C162.28,232.83,162.3,237.83,165.5,238.03L165.5,238.03z"/>
		</g>
	</g>
	<g>
		<g>
			<path class="st3" d="M275.42,218.26c-8.58,5.64-19.62,5.65-29.4,7.47c-11.42,2.12-22.66,5.1-34.19,6.65
				c-6.57,0.88-13.18,1.47-19.78,2.06c0.83,0.83,1.67,1.67,2.5,2.5c0.01-0.08,0.02-0.17,0.02-0.25c-0.11,0.42-0.23,0.84-0.34,1.26
				c-0.17,0.31-1.08,0.4-0.42,0.43c0.2,0.01,0.49-0.11,0.69-0.16c0.54-0.12,1.08-0.22,1.62-0.3c1.1-0.17,2.21-0.26,3.32-0.32
				c2.29-0.14,4.58-0.15,6.87-0.22c4.66-0.14,9.23-0.81,13.79-1.75c9.28-1.92,18.54-3.99,27.8-5.98c5.33-1.15,10.66-2.3,15.99-3.45
				c3.14-0.68,1.81-5.5-1.33-4.82c-9.85,2.12-19.71,4.25-29.56,6.37c-4.98,1.07-9.95,2.19-14.94,3.21
				c-4.7,0.95-9.33,1.37-14.12,1.48c-2.83,0.06-5.64,0.17-8.45,0.56c-2.6,0.37-5.66,0.78-5.95,3.94c-0.11,1.26,1.24,2.61,2.5,2.5
				c12.06-1.08,24.06-2.36,35.93-4.83c5.75-1.2,11.47-2.53,17.24-3.65c5.35-1.05,10.75-1.71,16.13-2.61
				c5.81-0.97,11.63-2.5,16.61-5.77C280.63,220.82,278.12,216.49,275.42,218.26L275.42,218.26z"/>
		</g>
	</g>
	<g>
		<g>
			<path class="st3" d="M272.25,218.99c-4.18,2.12-8.89,2.7-13.5,3.05c-5.07,0.39-10.09,0.69-15.09,1.68
				c-5.08,1-10.09,2.43-15.22,3.15c-2.55,0.36-5.13,0.4-7.69,0.6c-2.72,0.21-5.35,0.68-7.97,1.45c-2.91,0.86-5.77,1.76-8.74,2.38
				c-2.95,0.62-5.94,1.08-8.92,1.54c-1.34,0.21-2.07,1.88-1.75,3.08c0.39,1.43,1.74,1.95,3.08,1.75c5.36-0.83,10.64-1.76,15.83-3.36
				c2.47-0.76,4.93-1.5,7.51-1.75c2.71-0.26,5.45-0.28,8.15-0.61c5.3-0.65,10.45-2.01,15.67-3.11c4.95-1.04,9.89-1.39,14.93-1.77
				c5.61-0.42,11.17-1.18,16.25-3.75C277.64,221.85,275.11,217.54,272.25,218.99L272.25,218.99z"/>
		</g>
	</g>
	<g>
		<g>
			<path class="st3" d="M260.76,226.48c-0.09,0.1-0.51,0.05,0.12,0.01c-0.1,0.01,0.52-0.06,0.57-0.07c0.7-0.08,1.41-0.13,2.11-0.19
				c1.35-0.1,2.69-0.19,4.04-0.34c2.91-0.33,5.7-0.92,8.3-2.33c2.06-1.12,1.26-4.95-1.26-4.66c-4.33,0.5-8.97,0.63-13.15,1.93
				c-1.72,0.54-3.27,1.42-5.07,1.66c-2.01,0.27-4.04,0.38-5.75,1.62c-1.09,0.79-1.63,2.17-0.9,3.42c0.63,1.08,2.32,1.69,3.42,0.9
				c1.27-0.92,2.92-0.87,4.43-1.09c1.85-0.27,3.43-1.13,5.2-1.68c3.77-1.18,7.91-1.3,11.82-1.75c-0.42-1.55-0.84-3.11-1.26-4.66
				c-2.36,1.29-5.05,1.62-7.69,1.83c-1.41,0.11-2.82,0.2-4.23,0.35c-1.53,0.17-3.14,0.29-4.22,1.52c-0.89,1.01-1,2.54,0,3.54
				C258.13,227.39,259.86,227.49,260.76,226.48L260.76,226.48z"/>
		</g>
	</g>
	<g>
		<g>
			<path class="st3" d="M262.31,235.4c1.75,1.96,2.62,4.48,3.21,7.01c0.72,3.09,1.12,6.26,1.41,9.42
				c0.63,6.82,0.52,13.69-0.27,20.49c-0.21,1.79,2.32,3.25,3.76,2.16c7.35-5.57,6.74-15.25,6.94-23.55
				c0.22-9.3,0.45-18.59,0.67-27.89c0.03-1.35-1.17-2.5-2.5-2.5c-1.48,0-2.34,1.15-2.5,2.5c-0.93,7.84-0.81,15.75-0.38,23.62
				c0.42,7.61,1.39,15.37,0.19,22.95c-0.21,1.33,0.34,2.69,1.75,3.08c1.19,0.33,2.86-0.4,3.08-1.75c1.26-7.92,0.47-15.84,0.02-23.79
				c-0.46-8.03-0.6-16.1,0.35-24.11c-1.67,0-3.33,0-5,0c-0.21,8.63-0.41,17.26-0.62,25.9c-0.1,4.19,0.05,8.49-0.48,12.65
				c-0.39,3.08-1.44,6.61-4.03,8.57c1.25,0.72,2.51,1.44,3.76,2.16c0.85-7.28,0.91-14.64,0.12-21.93
				c-0.69-6.42-1.47-13.5-5.94-18.52C263.7,229.46,260.18,233.01,262.31,235.4L262.31,235.4z"/>
		</g>
	</g>
	<g>
		<g>
			<path class="st3" d="M273.05,240.87c0.87,4.76,0.52,9.77,0.54,14.59c0.01,2.54,0.02,5.07,0.03,7.61c0,1.15,0.01,2.29,0.01,3.44
				c0,0.88,0.17,1.95-0.15,2.78c-0.6,1.58-2.35,2.67-3.47,3.85c-1.47,1.54-2.5,3.35-3.09,5.39c-0.61,2.08-0.77,4.28-0.89,6.44
				c-0.13,2.27-0.25,4.54-0.21,6.81c0.09,4.83,1.16,9.22,3.39,13.5c1.71,3.28,4.12,6.9,3.58,10.8c-0.11,0.81-0.37,1.61-0.83,2.29
				c-0.62,0.92-1.47,1.61-1.92,2.66c-0.87,2.03-0.16,4.5,1.63,5.79c1.91,1.38,4.58,1.07,6.24-0.57c1.75-1.73,1.4-4.31,1.31-6.54
				c-0.24-5.51-0.27-11.09-0.75-16.59c-0.22-2.49-0.89-4.98-2.87-6.67c-1.84-1.56-4.21-2.27-6.61-2.19c-3.21,0.1-3.22,5.1,0,5
				c1.27-0.04,2.7,0.19,3.58,1.2c1.04,1.21,0.94,3.11,1.01,4.6c0.2,4.47,0.39,8.94,0.59,13.42c0.05,1.06,0.1,2.11,0.14,3.17
				c0.01,0.31-0.11,0.91,0,1.18c0.12,0.3-0.07-0.25,0.07-0.12c0.06,0.05,0.46,0.16,0.27,0.24c0.42-0.17,1.15-1.35,1.43-1.75
				c2.16-3.05,2.11-7.28,1.06-10.73c-1.13-3.72-3.52-6.86-4.9-10.46c-1.46-3.81-1.52-7.88-1.36-11.9c0.13-3.38-0.09-7.59,1.91-10.51
				c0.87-1.27,2.18-2.2,3.23-3.32c1.28-1.36,2.26-2.91,2.52-4.78c0.34-2.42,0.11-4.97,0.1-7.41c-0.01-2.46-0.02-4.91-0.03-7.37
				c-0.02-5.06,0.2-10.18-0.71-15.18c-0.24-1.33-1.86-2.08-3.08-1.75C273.4,238.17,272.81,239.53,273.05,240.87L273.05,240.87z"/>
		</g>
	</g>
	<g>
		<g>
			<path class="st3" d="M273.24,299.02c1.14,1.75,0.67,4.07,0.57,6.04c-0.15,2.73-0.25,5.47-0.3,8.21
				c-0.1,5.48,0.02,10.96,0.32,16.43c0.08,1.35,1.1,2.5,2.5,2.5c1.49,0,2.33-1.15,2.5-2.5c0.16-1.29,0.33-2.57,0.49-3.86
				c0.17-1.34-1.27-2.5-2.5-2.5c-1.49,0-2.33,1.15-2.5,2.5c-0.16,1.29-0.33,2.57-0.49,3.86c1.67,0,3.33,0,5,0
				c-0.32-5.8-0.43-11.61-0.3-17.42c0.06-2.82,0.19-5.64,0.35-8.46c0.14-2.52,0.11-5.13-1.32-7.32
				C275.8,293.81,271.47,296.31,273.24,299.02L273.24,299.02z"/>
		</g>
	</g>
	<g>
		<g>
			<path class="st3" d="M263.85,296.41c0.45,2.25,1.64,4.2,2.48,6.3c0.78,1.97,1.3,4.07,1.57,6.17c0.59,4.58,0.17,9.26-0.39,13.81
				c-0.31,2.54,3.53,3.3,4.66,1.26c2.88-5.19,3.5-11.31,3.89-17.14c0.19-2.92-0.19-5.9-1.91-8.35c-1.64-2.33-3.88-4.01-6.18-5.64
				c-1.1-0.78-2.78-0.2-3.42,0.9c-0.73,1.25-0.21,2.64,0.9,3.42c1.62,1.15,3.35,2.35,4.49,4c1.37,1.96,1.24,4.26,1.05,6.54
				c-0.4,4.67-0.82,9.57-3.14,13.74c1.55,0.42,3.11,0.84,4.66,1.26c0.58-4.73,0.94-9.51,0.33-14.25c-0.31-2.41-0.81-4.79-1.69-7.06
				c-0.82-2.11-2.03-4.07-2.48-6.3c-0.26-1.32-1.84-2.09-3.08-1.75C264.22,293.72,263.59,295.09,263.85,296.41L263.85,296.41z"/>
		</g>
	</g>
	<g>
		<g>
			<path class="st3" d="M212.37,309.36c6.56,0.44,13.08,2.02,19.09,4.68c1.23,0.55,2.69,0.36,3.42-0.9c0.62-1.06,0.34-2.87-0.9-3.42
				c-6.87-3.04-14.11-4.86-21.62-5.37c-1.35-0.09-2.5,1.21-2.5,2.5C209.87,308.29,211.02,309.27,212.37,309.36L212.37,309.36z"/>
		</g>
	</g>
	<g>
		<g>
			<path class="st3" d="M75.33,222.65c19.47,6.73,40.04,8.93,60.07,13.37c5.67,1.26,11.29,2.7,16.83,4.46c0-1.61,0-3.21,0-4.82
				c-11.94,1.94-24.14,0.93-36.08-0.4c-6.08-0.68-12.15-1.46-18.24-2.03c-6.11-0.58-12.22-0.84-18.36-0.94
				c-6.89-0.11-13.84-0.15-20.67-1.12c0,1.61,0,3.21,0,4.82c8.79-1.19,17.65-1.86,26.52-2.08c3.24-0.08,3.19-4.77,0-5
				c-5.05-0.36-10.08-0.96-15.07-1.81c0,1.61,0,3.21,0,4.82c3.07-0.51,6.13-1.03,9.2-1.54c2.38-0.4,2.39-4.43,0-4.82
				c-3.95-0.64-7.91-1.28-11.86-1.92c-0.22,1.64-0.44,3.27-0.66,4.91c3.77,0.08,7.53,0.16,11.3,0.24c1.35,0.03,2.5-1.17,2.5-2.5
				c0-1.46-1.15-2.37-2.5-2.5c-1.78-0.17-3.57-0.33-5.35-0.5c0.22,1.64,0.44,3.27,0.66,4.91c2.25-0.32,4.53-0.38,6.8-0.29
				c0-1.67,0-3.33,0-5c-0.84,0-1.68,0-2.53,0c0,1.67,0,3.33,0,5c2.13-0.05,4.2,0.12,6.28,0.58c0-1.61,0-3.21,0-4.82
				c-2.95,0.45-5.89,0.9-8.84,1.35c-1.21,0.18-1.96,1.64-1.79,2.74c0.2,1.33,1.18,2.01,2.46,2.17c2.5,0.31,4.99,0.62,7.49,0.93
				c0-1.67,0-3.33,0-5c-4.35,0.54-8.62,1.39-12.82,2.65c-2.2,0.66-2.55,4.36,0,4.82c4.36,0.8,8.73,1.59,13.09,2.39
				c0.22-1.64,0.44-3.27,0.66-4.91c-4.17,0.45-8.29,1.17-12.34,2.23c-2.88,0.76-2.02,4.66,0.66,4.91c5.05,0.48,10.1,0.95,15.15,1.43
				c-0.22-1.64-0.44-3.27-0.66-4.91c-3.99,0.94-7.98,1.87-11.97,2.81c-2.32,0.54-2.45,4.36,0,4.82c4.64,0.87,9.35,1.3,14.07,1.23
				c0-1.67,0-3.33,0-5c-4.81,0.64-9.61,1.28-14.42,1.92c-1.23,0.16-2.3,0.82-2.46,2.17c-0.15,1.23,0.57,2.39,1.79,2.74
				c4.84,1.41,9.78,2.36,14.79,2.94c0-1.67,0-3.33,0-5c-4.81,0.45-9.58,1.2-14.29,2.26c-2.51,0.57-2.25,4.12,0,4.82
				c3.15,0.99,6.31,1.97,9.46,2.96c0.22-1.64,0.44-3.27,0.66-4.91c-3.66,0.07-7.17,1-10.4,2.71c-1.55,0.82-1.71,3.54,0,4.32
				c3.53,1.6,7.13,3.04,10.79,4.32c0.22-1.64,0.44-3.27,0.66-4.91c-3.55,0.38-7.07,0.96-10.54,1.79c-2.36,0.57-2.4,4.28,0,4.82
				c3.49,0.79,6.98,1.58,10.47,2.37c0.22-1.64,0.44-3.27,0.66-4.91c-3.48,0.43-6.73,1.31-9.97,2.67c-1.93,0.82-1.43,4.23,0.6,4.57
				c3.36,0.56,6.72,1.12,10.08,1.68c0.22-1.64,0.44-3.27,0.66-4.91c-2.94,0.39-5.88,0.77-8.83,1.16c-3.2,0.42-3.22,4.58,0,5
				c4.96,0.64,9.92,1.29,14.88,1.93c0-1.67,0-3.33,0-5c-3.99,0.16-7.99,0.32-11.98,0.47c-3.24,0.13-3.2,4.78,0,5
				c4.63,0.31,9.25,0.62,13.88,0.93c0-1.67,0-3.33,0-5c-3.81,0.07-7.61,0.51-11.35,1.26c-1.2,0.24-1.96,1.6-1.79,2.74
				c0.19,1.28,1.18,2.07,2.46,2.17c5.01,0.37,10.02,0.75,15.03,1.12c0-1.67,0-3.33,0-5c-1.55,0.09-3.1,0.18-4.66,0.27
				c-3.19,0.19-3.24,4.97,0,5c3.58,0.03,7.15-0.06,10.72-0.26c3.2-0.18,3.23-5.15,0-5c-2.8,0.13-5.59,0.26-8.39,0.39
				c-3.25,0.15-3.18,4.71,0,5c7.23,0.66,14.49,0.9,21.75,0.72c3.23-0.08,3.21-4.86,0-5c-3.55-0.15-7.09-0.31-10.64-0.46
				c0,1.67,0,3.33,0,5c5.13,0.22,10.26,0.03,15.36-0.55c1.24-0.14,2.3-0.84,2.46-2.17c0.14-1.18-0.56-2.46-1.79-2.74
				c-3.29-0.75-6.65-1.21-10.03-1.36c0,1.67,0,3.33,0,5c4.34,0.18,8.68-0.01,12.99-0.57c3.19-0.42,3.23-4.61,0-5
				c-4.43-0.53-8.87-0.7-13.33-0.51c-3.26,0.14-3.17,4.7,0,5c4.28,0.41,8.57,0.33,12.84-0.22c1.23-0.16,2.3-0.83,2.46-2.17
				c0.14-1.16-0.55-2.48-1.79-2.74c-2.89-0.61-5.82-1.02-8.77-1.26c0,1.67,0,3.33,0,5c5.52-0.15,11-0.64,16.47-1.4
				c1.21-0.17,1.95-1.66,1.79-2.74c-0.19-1.25-1.18-2.11-2.46-2.17c-2.79-0.12-5.59-0.23-8.38-0.35c0,1.67,0,3.33,0,5
				c5.44-0.05,10.88-0.41,16.28-1.06c1.24-0.15,2.3-0.84,2.46-2.17c0.13-1.13-0.55-2.52-1.79-2.74c-2.65-0.47-5.32-0.69-8.01-0.59
				c0,1.67,0,3.33,0,5c2.34-0.26,4.44-0.84,6.57-1.83c1.85-0.86,1.5-4.27-0.6-4.57c-4.27-0.62-8.53-0.77-12.83-0.3
				c-1.34,0.15-2.5,1.04-2.5,2.5c0,1.28,1.15,2.6,2.5,2.5c4.03-0.3,8.07-0.59,12.1-0.89c3.18-0.23,3.26-4.94,0-5
				c-7.61-0.13-15.21,0.24-22.77,1.12c-3.16,0.37-3.26,4.75,0,5c2.68,0.21,5.36,0.41,8.04,0.62c0-1.67,0-3.33,0-5
				c-7.29-0.12-14.57,0.2-21.82,0.95c-1.11,0.11-2.1,0.7-2.41,1.84c-0.28,1.03,0.17,2.32,1.15,2.82c1.92,1,3.94,1.53,6.11,1.54
				c0-1.67,0-3.33,0-5c-4.26-0.01-8.5,0.24-12.73,0.75c-1.24,0.15-2.3,0.84-2.46,2.17c-0.14,1.21,0.57,2.42,1.79,2.74
				c5.54,1.46,11.23,2.33,16.95,2.61c1.35,0.07,2.5-1.2,2.5-2.5c0-1.45-1.15-2.38-2.5-2.5c-4.11-0.36-8.21-0.72-12.32-1.08
				c-1.35-0.12-2.5,1.23-2.5,2.5c0,1.47,1.15,2.35,2.5,2.5c5.29,0.57,10.56,0.39,15.82-0.39c2.48-0.37,2.28-4.3,0-4.82
				c-5.65-1.3-11.38-2.22-17.15-2.8c0,1.67,0,3.33,0,5c5.91,0.13,11.83,0.26,17.74,0.39c1.35,0.03,2.5-1.17,2.5-2.5
				c0-1.45-1.15-2.39-2.5-2.5c-7.21-0.6-14.45-0.77-21.69-0.51c-1.24,0.04-2.31,0.92-2.46,2.17c-0.13,1.1,0.54,2.57,1.79,2.74
				c5.36,0.73,10.74,1.1,16.15,1.02c2.71-0.04,3.54-4.42,0.66-4.91c-7.31-1.25-14.7-1.93-22.12-1.96c-1.35-0.01-2.5,1.15-2.5,2.5
				c0,1.49,1.15,2.34,2.5,2.5c4.08,0.49,8.18,0.53,12.27,0.11c1.24-0.13,2.3-0.85,2.46-2.17c0.13-1.13-0.55-2.53-1.79-2.74
				c-7.95-1.36-15.98-2.29-24.04-2.75c0,1.67,0,3.33,0,5c5.79,0.29,11.59,0.27,17.38-0.05c1.24-0.07,2.3-0.9,2.46-2.17
				c0.13-1.11-0.55-2.56-1.79-2.74c-7.32-1.09-14.67-1.9-22.05-2.39c0,1.67,0,3.33,0,5c5.21,0,10.42-0.01,15.63-0.01
				c3.25,0,3.17-4.76,0-5c-5.78-0.44-11.57-0.88-17.35-1.33c0,1.67,0,3.33,0,5c5.36,0.18,10.72,0.06,16.07-0.38
				c1.24-0.1,2.3-0.87,2.46-2.17c0.14-1.15-0.55-2.5-1.79-2.74c-4.55-0.9-9.15-1.53-13.77-1.86c0,1.67,0,3.33,0,5
				c4.52,0.03,9.03-0.16,13.54-0.58c1.24-0.12,2.3-0.86,2.46-2.17c0.13-1.11-0.55-2.55-1.79-2.74c-2.88-0.44-5.76-0.88-8.64-1.33
				c0,1.61,0,3.21,0,4.82c3.68-0.52,7.37-1.04,11.05-1.57c2.39-0.34,2.39-4.48,0-4.82c-3.46-0.49-6.91-0.98-10.37-1.47
				c-0.22,1.64-0.44,3.27-0.66,4.91c5.09,0.15,10.15-0.19,15.19-0.92c1.21-0.18,1.96-1.65,1.79-2.74c-0.19-1.27-1.18-2.08-2.46-2.17
				c-5.69-0.37-11.39-0.75-17.08-1.12c0,1.67,0,3.33,0,5c4.78-0.02,9.56-0.05,14.33-0.07c1.23-0.01,2.31-0.95,2.46-2.17
				c0.13-1.1-0.54-2.57-1.79-2.74c-4.46-0.6-8.86-1.49-13.2-2.67c0,1.61,0,3.21,0,4.82c3.8-0.55,7.59-1.1,11.39-1.65
				c1.21-0.18,1.96-1.65,1.79-2.74c-0.2-1.31-1.18-2.04-2.46-2.17c-3.05-0.31-6.1-0.62-9.15-0.93c0,1.67,0,3.33,0,5
				c4.12-0.3,8.24-0.61,12.36-0.91c3.17-0.23,3.25-5.13,0-5c-2.38,0.09-4.76,0.05-7.14-0.12c0.22,1.64,0.44,3.27,0.66,4.91
				c2.87-0.53,5.74-1.06,8.61-1.58c1.21-0.22,1.96-1.61,1.79-2.74c-0.19-1.28-1.18-2.07-2.46-2.17c-2.72-0.21-5.44-0.42-8.16-0.62
				c0.22,1.64,0.44,3.27,0.66,4.91c2.47-0.4,4.95-0.79,7.42-1.19c2.42-0.39,2.35-4.37,0-4.82c-3.6-0.7-7.21-1.4-10.81-2.1
				c0,1.61,0,3.21,0,4.82c2.19-0.43,4.37-0.85,6.56-1.28c1.21-0.24,1.96-1.6,1.79-2.74c-0.2-1.33-1.18-2.01-2.46-2.17
				c-2.1-0.27-4.2-0.54-6.3-0.81c0.22,1.64,0.44,3.27,0.66,4.91c2.22-0.45,4.45-0.91,6.67-1.36c2.41-0.49,2.36-4.3,0-4.82
				c-2.53-0.56-5.06-1.12-7.59-1.68c-0.22,1.64-0.44,3.27-0.66,4.91c3.57-0.39,7.14-0.78,10.72-1.16c3.2-0.35,3.23-4.68,0-5
				c-2.31-0.23-4.63-0.46-6.94-0.69c0.22,1.64,0.44,3.27,0.66,4.91c2.66-0.4,5.32-0.8,7.98-1.2c1.21-0.18,1.96-1.64,1.79-2.74
				c-0.19-1.29-1.18-2.06-2.46-2.17c-4.71-0.41-9.42-0.81-14.13-1.22c0.22,1.64,0.44,3.27,0.66,4.91c1.33-0.32,2.63-0.41,4-0.35
				c0-1.67,0-3.33,0-5c-0.98,0.04-1.95,0.07-2.93,0.11c-1.24,0.05-2.31,0.91-2.46,2.17c-0.13,1.1,0.55,2.57,1.79,2.74
				c4.67,0.67,9.3,1.6,13.86,2.81c0.22-1.64,0.44-3.27,0.66-4.91c-6.73-0.04-13.46-0.08-20.19-0.11c-1.35-0.01-2.5,1.15-2.5,2.5
				c0,1.46,1.15,2.37,2.5,2.5c7.54,0.7,15.05,1.71,22.51,3.03c0.22-1.64,0.44-3.27,0.66-4.91c-4.61,0.33-9.22,0.65-13.84,0.98
				c-3.24,0.23-3.19,4.69,0,5c5.55,0.53,11.11,1.06,16.66,1.59c-0.22-1.64-0.44-3.27-0.66-4.91c-1.4,0.39-2.81,0.79-4.21,1.18
				c-2.36,0.66-2.4,4.17,0,4.82c1.91,0.52,3.68,1.23,5.41,2.21c0.2-1.52,0.4-3.05,0.6-4.57c-2.85,0.76-5.73,1.3-8.66,1.56
				c-3.16,0.28-3.27,4.97,0,5c8.18,0.08,16.37,0.15,24.55,0.23c0-1.67,0-3.33,0-5c-6.44,0.71-12.9,1.2-19.37,1.47
				c-3.2,0.13-3.24,5.01,0,5c9.71-0.02,19.42-0.03,29.13-0.05c-0.22-1.64-0.44-3.27-0.66-4.91c-6.62,1.39-13.23,2.79-19.85,4.18
				c-2.84,0.6-2.07,4.82,0.66,4.91c5.21,0.16,10.42,0.05,15.61-0.35c1.35-0.1,2.5-1.08,2.5-2.5c0-1.32-1.14-2.54-2.5-2.5
				c-7.07,0.22-14.14,0.44-21.2,0.66c0,1.67,0,3.33,0,5c5.13-0.45,10.26-0.89,15.39-1.34c3.16-0.27,3.27-4.99,0-5
				c-7.95-0.03-15.9-0.06-23.85-0.09c0,1.67,0,3.33,0,5c3.52-0.07,7.05-0.15,10.57-0.22c0-1.67,0-3.33,0-5
				c-4.23,0.53-8.45,1.07-12.68,1.6c-1.34,0.17-2.5,1.03-2.5,2.5c0,1.44,1.15,2.4,2.5,2.5c7.31,0.54,14.62,1.07,21.93,1.61
				c0-1.67,0-3.33,0-5c-5.39,0.18-10.79,0.36-16.18,0.54c-3.24,0.11-3.19,4.77,0,5c6.47,0.46,12.95,0.7,19.43,0.71
				c0-1.67,0-3.33,0-5c-6.45,0.23-12.9,0.45-19.36,0.68c-1.24,0.04-2.31,0.92-2.46,2.17c-0.13,1.11,0.55,2.56,1.79,2.74
				c4.34,0.64,8.69,1.01,13.08,1.03c0-1.67,0-3.33,0-5c-5.63,0.48-11.26,0.97-16.89,1.45c-3.24,0.28-3.19,4.66,0,5
				c4.64,0.49,9.28,0.99,13.91,1.48c0-1.67,0-3.33,0-5c-5.26,0.41-10.51,0.83-15.77,1.24c-3.23,0.25-3.2,4.71,0,5
				c5.02,0.46,10.05,0.92,15.07,1.38c0-1.67,0-3.33,0-5c-4.79,0.24-9.58,0.28-14.37,0.13c-3.23-0.1-3.2,4.83,0,5
				c5.94,0.32,11.89,0.64,17.83,0.97c0-1.67,0-3.33,0-5c-5,0.2-10,0.4-15,0.6c-1.35,0.05-2.5,1.11-2.5,2.5c0,1.48,1.15,2.34,2.5,2.5
				c4.62,0.55,9.23,1.1,13.85,1.64c0-1.67,0-3.33,0-5c-4.43,0.16-8.86,0.32-13.29,0.48c-3.25,0.12-3.18,4.73,0,5
				c7.17,0.62,14.36,1.04,21.55,1.27c1.35,0.04,2.5-1.18,2.5-2.5c0-1.44-1.15-2.4-2.5-2.5c-4.31-0.33-8.62-0.53-12.94-0.58
				c0,1.67,0,3.33,0,5c7.97-0.04,15.94-0.07,23.9-0.11c3.22-0.01,3.22-5,0-5c-4,0-7.99-0.01-11.99-0.01c-3.22,0-3.22,4.92,0,5
				c7.86,0.2,15.73,0.14,23.58-0.18c3.21-0.13,3.23-4.95,0-5c-4.88-0.08-9.75-0.17-14.63-0.25c0,1.67,0,3.33,0,5
				c5.57-0.21,11.12-0.66,16.65-1.35c3.15-0.39,3.27-4.73,0-5c-6.89-0.56-13.81-0.79-20.72-0.69c0,1.67,0,3.33,0,5
				c5.21-0.21,10.43-0.41,15.64-0.62c3.21-0.13,3.23-4.91,0-5c-7.78-0.23-15.57-0.45-23.35-0.68c0,1.67,0,3.33,0,5
				c6.83-0.13,13.65-0.5,20.45-1.09c3.18-0.28,3.25-4.81,0-5c-7.6-0.44-15.19-0.88-22.79-1.32c0,1.67,0,3.33,0,5
				c7.13-0.52,14.24-1.33,21.31-2.38c1.21-0.18,1.96-1.65,1.79-2.74c-0.18-1.22-1.19-2.16-2.46-2.17
				c-7.01-0.05-14.02,0.05-21.02,0.29c0,1.67,0,3.33,0,5c8-0.9,16-1.79,24-2.69c1.34-0.15,2.5-1.04,2.5-2.5
				c0-1.32-1.14-2.55-2.5-2.5c-9.55,0.32-19.11,0.34-28.67,0.08c0,1.67,0,3.33,0,5c9.25-0.6,18.48-1.52,27.67-2.74
				c1.34-0.18,2.5-1.02,2.5-2.5c0-1.37-1.14-2.48-2.5-2.5c-5.69-0.1-11.38-0.2-17.07-0.3c0.22,1.64,0.44,3.27,0.66,4.91
				c7.91-1.21,15.81-2.41,23.72-3.62c2.84-0.43,2.07-4.89-0.66-4.91c-5.93-0.05-11.87-0.09-17.8-0.14c0,1.67,0,3.33,0,5
				c8-0.77,15.98-1.85,23.9-3.23c2.83-0.49,2.09-4.9-0.66-4.91c-6.94-0.03-13.87-0.06-20.81-0.09c-3.22-0.01-3.22,4.93,0,5
				c6.66,0.15,13.33,0.31,19.99,0.46c0-1.67,0-3.33,0-5c-7.17,0.03-14.33,0.49-21.45,1.37c-1.34,0.17-2.5,1.03-2.5,2.5
				c0,1.42,1.15,2.42,2.5,2.5c5.87,0.33,11.75,0.65,17.62,0.98c-0.22-1.64-0.44-3.27-0.66-4.91c-3.15,1.19-6.3,2.38-9.45,3.57
				c-2.53,0.96-2.32,4.89,0.66,4.91c3.41,0.02,6.81,0.05,10.22,0.07c-0.22-1.64-0.44-3.27-0.66-4.91
				c-3.71,0.54-7.38,1.27-11.01,2.19c-2.69,0.68-2.19,5.04,0.66,4.91c3.93-0.18,7.86-0.36,11.79-0.55
				c-0.22-1.64-0.44-3.27-0.66-4.91c-2.91,1.1-5.83,2.19-8.74,3.29c-1.04,0.39-1.84,1.24-1.84,2.41c0,1.04,0.77,2.21,1.84,2.41
				c3.72,0.72,7.46,1.26,11.22,1.66c-0.22-1.64-0.44-3.27-0.66-4.91c-3.26,0.7-6.51,1.4-9.77,2.1c-2.89,0.62-2.02,4.73,0.66,4.91
				c2.8,0.19,5.61,0.38,8.41,0.57c0-1.67,0-3.33,0-5c-4.64,0.34-9.28,0.68-13.91,1.02c-3.2,0.23-3.24,4.82,0,5
				c5.13,0.28,10.26,0.56,15.39,0.84c-0.22-1.64-0.44-3.27-0.66-4.91c-1.06,0.32-2.11,0.65-3.17,0.97c-2.72,0.83-2.17,4.8,0.66,4.91
				c4.78,0.19,9.56,0.38,14.34,0.57c0-1.67,0-3.33,0-5c-2.42,0.16-4.84,0.33-7.26,0.49c-3.24,0.22-3.19,4.7,0,5
				c3.14,0.29,6.27,0.59,9.41,0.88c-0.22-1.64-0.44-3.27-0.66-4.91c-1.87,0.3-3.74,0.6-5.61,0.9c-2.88,0.46-2.04,4.82,0.66,4.91
				c4.08,0.14,8.16,0.28,12.25,0.42c0-1.67,0-3.33,0-5c-1.43,0.07-2.86,0.14-4.29,0.21c-3.2,0.15-3.24,5.05,0,5
				c4.3-0.07,8.6-0.01,12.9,0.17c0-1.67,0-3.33,0-5c-0.94,0.02-1.88,0.03-2.81,0.05c-3.21,0.06-3.22,5.06,0,5
				c0.94-0.02,1.88-0.03,2.81-0.05c3.23-0.06,3.21-4.87,0-5c-4.3-0.18-8.6-0.23-12.9-0.17c0,1.67,0,3.33,0,5
				c1.43-0.07,2.86-0.14,4.29-0.21c3.21-0.15,3.23-4.89,0-5c-4.08-0.14-8.17-0.28-12.25-0.42c0.22,1.64,0.44,3.27,0.66,4.91
				c1.87-0.3,3.74-0.6,5.61-0.9c1.21-0.19,1.96-1.64,1.79-2.74c-0.2-1.3-1.18-2.05-2.46-2.17c-3.14-0.29-6.27-0.59-9.41-0.88
				c0,1.67,0,3.33,0,5c2.42-0.16,4.84-0.33,7.26-0.49c3.19-0.22,3.24-4.87,0-5c-4.78-0.19-9.56-0.38-14.34-0.57
				c0.22,1.64,0.44,3.27,0.66,4.91c1.06-0.32,2.11-0.65,3.17-0.97c2.74-0.84,2.15-4.76-0.66-4.91c-5.13-0.28-10.26-0.56-15.39-0.84
				c0,1.67,0,3.33,0,5c4.64-0.34,9.28-0.68,13.91-1.02c3.21-0.24,3.23-4.78,0-5c-2.8-0.19-5.61-0.38-8.41-0.57
				c0.22,1.64,0.44,3.27,0.66,4.91c3.26-0.7,6.51-1.4,9.77-2.1c1.2-0.26,1.96-1.59,1.79-2.74c-0.2-1.31-1.18-2.03-2.46-2.17
				c-3.32-0.35-6.62-0.85-9.89-1.48c0,1.61,0,3.21,0,4.82c2.91-1.1,5.83-2.19,8.74-3.29c1.16-0.44,1.99-1.44,1.79-2.74
				c-0.18-1.17-1.19-2.23-2.46-2.17c-3.93,0.18-7.86,0.36-11.79,0.55c0.22,1.64,0.44,3.27,0.66,4.91c3.63-0.92,7.3-1.65,11.01-2.19
				c1.21-0.18,1.96-1.65,1.79-2.74c-0.18-1.22-1.19-2.16-2.46-2.17c-3.41-0.02-6.81-0.05-10.22-0.07c0.22,1.64,0.44,3.27,0.66,4.91
				c3.15-1.19,6.3-2.38,9.45-3.57c2.6-0.98,2.26-4.75-0.66-4.91c-5.87-0.33-11.75-0.65-17.62-0.98c0,1.67,0,3.33,0,5
				c7.12-0.89,14.28-1.35,21.45-1.37c3.22-0.01,3.22-4.93,0-5c-6.66-0.15-13.33-0.31-19.99-0.46c0,1.67,0,3.33,0,5
				c6.94,0.03,13.87,0.06,20.81,0.09c-0.22-1.64-0.44-3.27-0.66-4.91c-7.48,1.3-15.01,2.32-22.57,3.05c-1.34,0.13-2.5,1.06-2.5,2.5
				c0,1.36,1.14,2.49,2.5,2.5c5.93,0.05,11.87,0.09,17.8,0.14c-0.22-1.64-0.44-3.27-0.66-4.91c-7.91,1.21-15.81,2.41-23.72,3.62
				c-1.21,0.18-1.96,1.64-1.79,2.74c0.19,1.23,1.18,2.15,2.46,2.17c5.69,0.1,11.38,0.2,17.07,0.3c0-1.67,0-3.33,0-5
				c-9.19,1.22-18.42,2.14-27.67,2.74c-3.19,0.21-3.24,4.91,0,5c9.55,0.26,19.11,0.24,28.67-0.08c0-1.67,0-3.33,0-5
				c-8,0.9-16,1.79-24,2.69c-1.34,0.15-2.5,1.04-2.5,2.5c0,1.32,1.14,2.55,2.5,2.5c7-0.24,14.01-0.34,21.02-0.29
				c-0.22-1.64-0.44-3.27-0.66-4.91c-6.63,0.99-13.29,1.71-19.98,2.2c-3.2,0.23-3.23,4.81,0,5c7.6,0.44,15.19,0.88,22.79,1.32
				c0-1.67,0-3.33,0-5c-6.8,0.6-13.63,0.96-20.45,1.09c-3.22,0.06-3.22,4.91,0,5c7.78,0.23,15.57,0.45,23.35,0.68c0-1.67,0-3.33,0-5
				c-5.21,0.21-10.43,0.41-15.64,0.62c-3.2,0.13-3.23,5.05,0,5c6.92-0.1,13.83,0.13,20.72,0.69c0-1.67,0-3.33,0-5
				c-5.53,0.69-11.08,1.14-16.65,1.35c-3.21,0.12-3.23,4.95,0,5c4.88,0.08,9.75,0.17,14.63,0.25c0-1.67,0-3.33,0-5
				c-7.86,0.32-15.72,0.38-23.58,0.18c0,1.67,0,3.33,0,5c4,0,7.99,0.01,11.99,0.01c0-1.67,0-3.33,0-5
				c-7.97,0.04-15.94,0.07-23.9,0.11c-3.22,0.01-3.22,4.96,0,5c4.32,0.05,8.63,0.25,12.94,0.58c0-1.67,0-3.33,0-5
				c-7.19-0.23-14.38-0.65-21.55-1.27c0,1.67,0,3.33,0,5c4.43-0.16,8.86-0.32,13.29-0.48c1.35-0.05,2.5-1.11,2.5-2.5
				c0-1.48-1.15-2.34-2.5-2.5c-4.62-0.55-9.23-1.1-13.85-1.64c0,1.67,0,3.33,0,5c5-0.2,10-0.4,15-0.6c3.22-0.13,3.21-4.83,0-5
				c-5.94-0.32-11.89-0.64-17.83-0.97c0,1.67,0,3.33,0,5c4.79,0.15,9.58,0.11,14.37-0.13c3.25-0.16,3.18-4.71,0-5
				c-5.02-0.46-10.05-0.92-15.07-1.38c0,1.67,0,3.33,0,5c5.26-0.41,10.51-0.83,15.77-1.24c3.24-0.26,3.18-4.66,0-5
				c-4.64-0.49-9.28-0.99-13.91-1.48c0,1.67,0,3.33,0,5c5.63-0.48,11.26-0.97,16.89-1.45c3.16-0.27,3.27-4.99,0-5
				c-3.93-0.01-7.86-0.27-11.75-0.85c-0.22,1.64-0.44,3.27-0.66,4.91c6.45-0.23,12.9-0.45,19.36-0.68c3.21-0.11,3.23-4.99,0-5
				c-6.48-0.01-12.96-0.25-19.43-0.71c0,1.67,0,3.33,0,5c5.39-0.18,10.79-0.36,16.18-0.54c3.24-0.11,3.19-4.77,0-5
				c-7.31-0.54-14.62-1.07-21.93-1.61c0,1.67,0,3.33,0,5c4.23-0.53,8.45-1.07,12.68-1.6c1.34-0.17,2.5-1.03,2.5-2.5
				c0-1.33-1.14-2.53-2.5-2.5c-3.52,0.07-7.05,0.15-10.57,0.22c-3.21,0.07-3.23,4.99,0,5c7.95,0.03,15.9,0.06,23.85,0.09
				c0-1.67,0-3.33,0-5c-5.13,0.44-10.26,0.89-15.39,1.34c-1.35,0.12-2.5,1.07-2.5,2.5c0,1.32,1.14,2.54,2.5,2.5
				c7.07-0.22,14.14-0.44,21.2-0.66c0-1.67,0-3.33,0-5c-5.2,0.4-10.41,0.51-15.61,0.35c0.22,1.64,0.44,3.27,0.66,4.91
				c6.62-1.39,13.23-2.79,19.85-4.18c2.79-0.59,2.11-4.92-0.66-4.91c-9.71,0.02-19.42,0.03-29.13,0.05c0,1.67,0,3.33,0,5
				c6.47-0.27,12.93-0.76,19.37-1.47c1.34-0.15,2.5-1.04,2.5-2.5c0-1.37-1.14-2.49-2.5-2.5c-8.18-0.08-16.37-0.16-24.55-0.23
				c0,1.67,0,3.33,0,5c3.38-0.3,6.72-0.86,9.99-1.74c2.06-0.55,2.47-3.51,0.6-4.57c-2.08-1.17-4.3-2.09-6.6-2.71
				c0,1.61,0,3.21,0,4.82c1.4-0.39,2.81-0.79,4.21-1.18c2.85-0.8,2.04-4.65-0.66-4.91c-5.55-0.53-11.11-1.06-16.66-1.59
				c0,1.67,0,3.33,0,5c4.61-0.33,9.22-0.65,13.84-0.98c1.24-0.09,2.3-0.88,2.46-2.17c0.13-1.13-0.55-2.52-1.79-2.74
				c-7.9-1.39-15.85-2.46-23.84-3.2c0,1.67,0,3.33,0,5c6.73,0.04,13.46,0.08,20.19,0.11c2.81,0.02,3.41-4.18,0.66-4.91
				c-4.56-1.21-9.19-2.14-13.86-2.81c-0.22,1.64-0.44,3.27-0.66,4.91c0.98-0.04,1.95-0.07,2.93-0.11c3.22-0.12,3.21-4.85,0-5
				c-1.79-0.08-3.58,0.11-5.33,0.53c-2.9,0.69-2.01,4.68,0.66,4.91c4.71,0.41,9.42,0.81,14.13,1.22c-0.22-1.64-0.44-3.27-0.66-4.91
				c-2.66,0.4-5.32,0.8-7.98,1.2c-1.21,0.18-1.96,1.64-1.79,2.74c0.2,1.3,1.18,2.04,2.46,2.17c2.31,0.23,4.63,0.46,6.94,0.69
				c0-1.67,0-3.33,0-5c-3.57,0.39-7.14,0.78-10.72,1.16c-1.24,0.13-2.3,0.85-2.46,2.17c-0.14,1.17,0.56,2.47,1.79,2.74
				c2.53,0.56,5.06,1.12,7.59,1.68c0-1.61,0-3.21,0-4.82c-2.22,0.45-4.45,0.91-6.67,1.36c-1.2,0.25-1.96,1.6-1.79,2.74
				c0.2,1.33,1.18,2.01,2.46,2.17c2.1,0.27,4.2,0.54,6.3,0.81c-0.22-1.64-0.44-3.27-0.66-4.91c-2.19,0.43-4.37,0.85-6.56,1.28
				c-2.38,0.47-2.39,4.36,0,4.82c3.6,0.7,7.21,1.4,10.81,2.1c0-1.61,0-3.21,0-4.82c-2.47,0.4-4.95,0.79-7.42,1.19
				c-1.21,0.19-1.96,1.63-1.79,2.74c0.19,1.28,1.18,2.07,2.46,2.17c2.72,0.21,5.44,0.42,8.16,0.62c-0.22-1.64-0.44-3.27-0.66-4.91
				c-2.87,0.53-5.74,1.06-8.61,1.58c-1.21,0.22-1.96,1.61-1.79,2.74c0.19,1.28,1.18,2.08,2.46,2.17c2.38,0.17,4.75,0.21,7.14,0.12
				c0-1.67,0-3.33,0-5c-4.12,0.3-8.24,0.61-12.36,0.91c-3.24,0.24-3.18,4.68,0,5c3.05,0.31,6.1,0.62,9.15,0.93
				c-0.22-1.64-0.44-3.27-0.66-4.91c-3.8,0.55-7.59,1.1-11.39,1.65c-2.55,0.37-2.21,4.22,0,4.82c4.34,1.18,8.74,2.07,13.2,2.67
				c0.22-1.64,0.44-3.27,0.66-4.91c-4.78,0.02-9.56,0.05-14.33,0.07c-3.24,0.02-3.19,4.79,0,5c5.69,0.37,11.39,0.75,17.08,1.12
				c-0.22-1.64-0.44-3.27-0.66-4.91c-4.58,0.66-9.23,0.88-13.86,0.74c-1.23-0.04-2.31,0.98-2.46,2.17c-0.13,1.1,0.55,2.57,1.79,2.74
				c3.46,0.49,6.91,0.98,10.37,1.47c0-1.61,0-3.21,0-4.82c-3.68,0.52-7.37,1.04-11.05,1.57c-2.4,0.34-2.38,4.46,0,4.82
				c2.88,0.44,5.76,0.88,8.64,1.33c0.22-1.64,0.44-3.27,0.66-4.91c-4.5,0.42-9.02,0.62-13.54,0.58c-3.25-0.02-3.18,4.77,0,5
				c4.18,0.31,8.33,0.87,12.45,1.69c0.22-1.64,0.44-3.27,0.66-4.91c-5.35,0.44-10.71,0.57-16.07,0.38c-1.35-0.05-2.5,1.18-2.5,2.5
				c0,1.44,1.15,2.4,2.5,2.5c5.78,0.44,11.57,0.88,17.35,1.33c0-1.67,0-3.33,0-5c-5.21,0-10.42,0.01-15.63,0.01
				c-3.25,0-3.18,4.79,0,5c6.93,0.47,13.85,1.19,20.73,2.21c0.22-1.64,0.44-3.27,0.66-4.91c-5.79,0.32-11.59,0.34-17.38,0.05
				c-3.22-0.16-3.2,4.82,0,5c7.61,0.44,15.19,1.29,22.71,2.58c0.22-1.64,0.44-3.27,0.66-4.91c-4.09,0.42-8.19,0.39-12.27-0.11
				c0,1.67,0,3.33,0,5c6.97,0.03,13.92,0.61,20.79,1.78c0.22-1.64,0.44-3.27,0.66-4.91c-4.95,0.07-9.92-0.18-14.82-0.84
				c-0.22,1.64-0.44,3.27-0.66,4.91c7.23-0.26,14.47-0.09,21.69,0.51c0-1.67,0-3.33,0-5c-5.91-0.13-11.83-0.26-17.74-0.39
				c-1.35-0.03-2.5,1.17-2.5,2.5c0,1.46,1.15,2.36,2.5,2.5c5.33,0.53,10.61,1.42,15.82,2.62c0-1.61,0-3.21,0-4.82
				c-4.79,0.71-9.68,0.73-14.49,0.22c0,1.67,0,3.33,0,5c4.11,0.36,8.21,0.72,12.32,1.08c0-1.67,0-3.33,0-5
				c-5.29-0.26-10.5-1.08-15.62-2.43c-0.22,1.64-0.44,3.27-0.66,4.91c4.23-0.51,8.47-0.76,12.73-0.75c3.22,0.01,3.22-4.98,0-5
				c-1.27-0.01-2.46-0.27-3.59-0.86c-0.42,1.55-0.84,3.11-1.26,4.66c7.25-0.75,14.53-1.07,21.82-0.95c3.25,0.05,3.17-4.76,0-5
				c-2.68-0.21-5.36-0.41-8.04-0.62c0,1.67,0,3.33,0,5c7.56-0.88,15.16-1.25,22.77-1.12c0-1.67,0-3.33,0-5
				c-4.03,0.3-8.07,0.59-12.1,0.89c0,1.67,0,3.33,0,5c3.81-0.42,7.69-0.43,11.5,0.12c-0.2-1.52-0.4-3.05-0.6-4.57
				c-1.26,0.59-2.67,0.99-4.05,1.15c-1.34,0.15-2.5,1.04-2.5,2.5c0,1.32,1.14,2.55,2.5,2.5c2.24-0.08,4.47,0.03,6.68,0.41
				c0.22-1.64,0.44-3.27,0.66-4.91c-5.4,0.66-10.84,1.01-16.28,1.06c-3.23,0.03-3.21,4.87,0,5c2.79,0.12,5.59,0.23,8.38,0.35
				c-0.22-1.64-0.44-3.27-0.66-4.91c-5.02,0.7-10.08,1.08-15.14,1.23c-3.25,0.09-3.18,4.74,0,5c2.51,0.2,4.98,0.57,7.44,1.08
				c0.22-1.64,0.44-3.27,0.66-4.91c-4.27,0.55-8.56,0.62-12.84,0.22c0,1.67,0,3.33,0,5c4.45-0.19,8.9-0.02,13.33,0.51
				c0-1.67,0-3.33,0-5c-4.31,0.56-8.65,0.75-12.99,0.57c-3.22-0.14-3.21,4.85,0,5c2.94,0.13,5.83,0.53,8.7,1.18
				c0.22-1.64,0.44-3.27,0.66-4.91c-5.1,0.59-10.23,0.77-15.36,0.55c-3.22-0.14-3.21,4.86,0,5c3.55,0.15,7.09,0.31,10.64,0.46
				c0-1.67,0-3.33,0-5c-7.26,0.18-14.52-0.06-21.75-0.72c0,1.67,0,3.33,0,5c2.8-0.13,5.59-0.26,8.39-0.39c0-1.67,0-3.33,0-5
				c-3.57,0.2-7.15,0.28-10.72,0.26c0,1.67,0,3.33,0,5c1.55-0.09,3.1-0.18,4.66-0.27c3.23-0.19,3.2-4.76,0-5
				c-5.01-0.37-10.02-0.75-15.03-1.12c0.22,1.64,0.44,3.27,0.66,4.91c3.31-0.67,6.64-1.02,10.02-1.08c3.24-0.06,3.19-4.79,0-5
				c-4.63-0.31-9.25-0.62-13.88-0.93c0,1.67,0,3.33,0,5c3.99-0.16,7.99-0.32,11.98-0.47c1.35-0.05,2.5-1.11,2.5-2.5
				c0-1.5-1.15-2.33-2.5-2.5c-4.96-0.64-9.92-1.29-14.88-1.93c0,1.67,0,3.33,0,5c2.94-0.39,5.88-0.77,8.83-1.16
				c1.23-0.16,2.3-0.83,2.46-2.17c0.13-1.12-0.55-2.54-1.79-2.74c-3.36-0.56-6.72-1.12-10.08-1.68c0.2,1.52,0.4,3.05,0.6,4.57
				c2.35-0.99,4.91-1.68,7.44-1.99c1.23-0.15,2.3-0.83,2.46-2.17c0.14-1.18-0.56-2.46-1.79-2.74c-3.49-0.79-6.98-1.58-10.47-2.37
				c0,1.61,0,3.21,0,4.82c3.04-0.73,6.11-1.28,9.21-1.62c2.77-0.3,3.44-3.95,0.66-4.91c-3.25-1.13-6.46-2.39-9.59-3.81
				c0,1.44,0,2.88,0,4.32c2.45-1.3,5.11-1.98,7.88-2.03c2.84-0.06,3.36-4.07,0.66-4.91c-3.15-0.99-6.31-1.97-9.46-2.96
				c0,1.61,0,3.21,0,4.82c4.27-0.97,8.59-1.68,12.96-2.09c3.24-0.3,3.19-4.63,0-5c-4.56-0.53-9.06-1.48-13.46-2.76
				c-0.22,1.64-0.44,3.27-0.66,4.91c4.81-0.64,9.61-1.28,14.42-1.92c1.34-0.18,2.5-1.02,2.5-2.5c0-1.34-1.14-2.52-2.5-2.5
				c-4.28,0.07-8.54-0.26-12.74-1.05c0,1.61,0,3.21,0,4.82c3.99-0.94,7.98-1.87,11.97-2.81c1.2-0.28,1.97-1.57,1.79-2.74
				c-0.2-1.3-1.18-2.05-2.46-2.17c-5.05-0.48-10.1-0.95-15.15-1.43c0.22,1.64,0.44,3.27,0.66,4.91c3.62-0.95,7.29-1.66,11.01-2.06
				c1.24-0.13,2.3-0.85,2.46-2.17c0.14-1.14-0.55-2.52-1.79-2.74c-4.36-0.8-8.73-1.59-13.09-2.39c0,1.61,0,3.21,0,4.82
				c3.76-1.13,7.6-1.99,11.49-2.47c3.21-0.4,3.21-4.6,0-5c-2.5-0.31-4.99-0.62-7.49-0.93c0.22,1.64,0.44,3.27,0.66,4.91
				c2.95-0.45,5.89-0.9,8.84-1.35c2.47-0.38,2.3-4.31,0-4.82c-2.5-0.56-5.05-0.83-7.61-0.76c-3.21,0.08-3.23,5,0,5
				c0.84,0,1.68,0,2.53,0c3.23,0,3.21-4.88,0-5c-2.73-0.1-5.42,0.09-8.13,0.47c-1.21,0.17-1.95,1.65-1.79,2.74
				c0.2,1.3,1.18,2.05,2.46,2.17c1.78,0.17,3.57,0.33,5.35,0.5c0-1.67,0-3.33,0-5c-3.77-0.08-7.53-0.16-11.3-0.24
				c-2.74-0.06-3.5,4.45-0.66,4.91c3.95,0.64,7.91,1.28,11.86,1.92c0-1.61,0-3.21,0-4.82c-3.07,0.51-6.13,1.03-9.2,1.54
				c-2.39,0.4-2.38,4.41,0,4.82c5.43,0.93,10.9,1.6,16.4,1.99c0-1.67,0-3.33,0-5c-9.32,0.23-18.61,1-27.84,2.26
				c-2.39,0.33-2.38,4.48,0,4.82c12.58,1.79,25.33,0.95,37.97,2.03c12.32,1.05,24.55,3.09,36.92,3.6c7.07,0.29,14.14,0,21.13-1.13
				c2.6-0.42,2.15-4.14,0-4.82c-19.62-6.24-40.2-8.33-60.18-13.05c-5.65-1.33-11.24-2.89-16.72-4.78c-1.28-0.44-2.73,0.5-3.08,1.75
				C73.21,220.95,74.05,222.21,75.33,222.65L75.33,222.65z"/>
		</g>
	</g>
	<g>
		<g>
			<path class="st3" d="M170.13,258.52c-4.47-0.5-8.96-0.58-13.45-0.24c-3.17,0.24-3.26,5.05,0,5c9.67-0.15,19.33-0.49,28.98-1.03
				c3.19-0.18,3.24-5.05,0-5c-13.79,0.21-27.59,0.41-41.38,0.62c0,1.67,0,3.33,0,5c11.34-0.77,22.68-1.53,34.02-2.3
				c3.25-0.22,3.18-4.67,0-5c-11.59-1.19-23.19-2.39-34.78-3.58c0,1.67,0,3.33,0,5c12.98,0.14,25.97,0.27,38.95-0.26
				c3.23-0.13,3.21-4.81,0-5c-11.63-0.7-23.28-1.02-34.93-0.94c0,1.67,0,3.33,0,5c13.52-0.19,27.04-0.28,40.56-0.27
				c0-1.67,0-3.33,0-5c-13.06,0.12-26.16,0.22-39.13-1.48c0,1.67,0,3.33,0,5c10.59-0.15,21.18-0.29,31.77-0.44
				c3.22-0.04,3.22-4.93,0-5c-14-0.32-28-0.64-42-0.96c0,1.67,0,3.33,0,5c13.23,0,26.47,0,39.7,0c3.22,0,3.22-4.99,0-5
				c-14.23-0.06-28.47-0.13-42.65-1.27c0,1.67,0,3.33,0,5c13.52-0.29,27.05-0.37,40.57-0.22c3.25,0.03,3.18-4.77,0-5
				c-12.27-0.9-24.51-2.01-36.74-3.35c0,1.67,0,3.33,0,5c12.48,0.49,24.94,1.32,37.38,2.46c0-1.67,0-3.33,0-5
				c-14.79-0.84-29.58-1.68-44.36-2.52c0,1.67,0,3.33,0,5c13.06-0.39,26.09,0.75,39.08,1.91c1.35,0.12,2.5-1.24,2.5-2.5
				c0-1.46-1.15-2.37-2.5-2.5c-10.44-1-20.86-2.27-31.23-3.82c-0.22,1.64-0.44,3.27-0.66,4.91c10.41-0.21,20.83,0.12,31.21,0.99
				c2.77,0.23,3.46-4.51,0.66-4.91c-9.83-1.41-19.66-2.83-29.49-4.24c-0.44,1.61-0.89,3.21-1.33,4.82c12.8,1.78,25.6,3.57,38.4,5.35
				c1.34,0.19,2.68-0.32,3.08-1.75c0.32-1.18-0.4-2.87-1.75-3.08c-9.23-1.4-18.41-3.08-27.53-5.05c-0.22,1.64-0.44,3.27-0.66,4.91
				c8.45,0.69,16.86,1.74,25.22,3.15c1.33,0.22,2.69-0.35,3.08-1.75c0.35-1.28-0.43-2.75-1.75-3.08c-7.1-1.74-14.26-3.29-21.45-4.63
				c-0.44,1.61-0.89,3.21-1.33,4.82c3.45,0.54,6.87,1.23,10.26,2.07c0.44-1.61,0.89-3.21,1.33-4.82c-2.98-0.42-5.96-0.84-8.95-1.26
				c-1.34-0.19-2.69,0.33-3.08,1.75c-0.33,1.2,0.41,2.85,1.75,3.08c5.24,0.88,10.49,1.77,15.73,2.65c1.33,0.22,2.69-0.35,3.08-1.75
				c0.33-1.2-0.41-2.85-1.75-3.08c-5.24-0.88-10.49-1.77-15.73-2.65c-0.44,1.61-0.89,3.21-1.33,4.82c2.98,0.42,5.96,0.84,8.95,1.26
				c1.34,0.19,2.69-0.33,3.08-1.75c0.35-1.28-0.43-2.75-1.75-3.08c-3.39-0.84-6.81-1.53-10.26-2.07c-1.33-0.21-2.69,0.34-3.08,1.75
				c-0.33,1.22,0.41,2.83,1.75,3.08c7.19,1.35,14.34,2.89,21.45,4.63c0.44-1.61,0.89-3.21,1.33-4.82c-8.8-1.49-17.66-2.6-26.55-3.33
				c-2.8-0.23-3.41,4.32-0.66,4.91c9.12,1.97,18.3,3.65,27.53,5.05c0.44-1.61,0.89-3.21,1.33-4.82c-12.8-1.78-25.6-3.57-38.4-5.35
				c-1.34-0.19-2.68,0.32-3.08,1.75c-0.32,1.17,0.4,2.88,1.75,3.08c9.83,1.41,19.66,2.83,29.49,4.24c0.22-1.64,0.44-3.27,0.66-4.91
				c-10.38-0.87-20.8-1.2-31.21-0.99c-1.23,0.02-2.31,0.93-2.46,2.17c-0.13,1.11,0.55,2.56,1.79,2.74c10.82,1.62,21.67,2.96,32.56,4
				c0-1.67,0-3.33,0-5c-13-1.16-26.02-2.3-39.08-1.91c-3.23,0.1-3.2,4.82,0,5c14.79,0.84,29.58,1.68,44.36,2.52
				c1.35,0.08,2.5-1.2,2.5-2.5c0-1.46-1.15-2.38-2.5-2.5c-12.44-1.15-24.9-1.97-37.38-2.46c-1.35-0.05-2.5,1.19-2.5,2.5
				c0,1.47,1.15,2.35,2.5,2.5c12.23,1.34,24.47,2.45,36.74,3.35c0-1.67,0-3.33,0-5c-13.52-0.14-27.05-0.07-40.57,0.22
				c-3.26,0.07-3.17,4.74,0,5c14.19,1.15,28.43,1.22,42.65,1.27c0-1.67,0-3.33,0-5c-13.23,0-26.47,0-39.7,0c-3.22,0-3.22,4.93,0,5
				c14,0.32,28,0.64,42,0.96c0-1.67,0-3.33,0-5c-10.59,0.15-21.18,0.29-31.77,0.44c-1.35,0.02-2.5,1.14-2.5,2.5
				c0,1.5,1.15,2.32,2.5,2.5c12.97,1.7,26.07,1.6,39.13,1.48c3.22-0.03,3.22-5,0-5c-13.52-0.01-27.04,0.08-40.56,0.27
				c-3.21,0.05-3.22,5.02,0,5c11.65-0.08,23.3,0.23,34.93,0.94c0-1.67,0-3.33,0-5c-12.98,0.53-25.96,0.4-38.95,0.26
				c-1.35-0.01-2.5,1.16-2.5,2.5c0,1.47,1.15,2.36,2.5,2.5c11.59,1.19,23.19,2.39,34.78,3.58c0-1.67,0-3.33,0-5
				c-11.34,0.77-22.68,1.53-34.02,2.3c-3.18,0.21-3.25,5.05,0,5c13.79-0.21,27.59-0.41,41.38-0.62c0-1.67,0-3.33,0-5
				c-9.65,0.54-19.31,0.88-28.98,1.03c0,1.67,0,3.33,0,5c4.49-0.33,8.98-0.25,13.45,0.24c1.34,0.15,2.5-1.26,2.5-2.5
				C172.63,259.55,171.47,258.67,170.13,258.52L170.13,258.52z"/>
		</g>
	</g>
	<g>
		<g>
			<path class="st3" d="M152.44,258.43c-2.74,0.63-5.2,2.52-6.57,4.97c-0.32,0.57-0.43,1.29-0.25,1.93
				c0.16,0.58,0.61,1.21,1.15,1.49c0.58,0.31,1.28,0.46,1.93,0.25c0.61-0.2,1.17-0.57,1.49-1.15c0.19-0.34,0.4-0.66,0.63-0.96
				c-0.13,0.17-0.26,0.34-0.39,0.51c0.41-0.53,0.88-1,1.41-1.41c-0.17,0.13-0.34,0.26-0.51,0.39c0.55-0.42,1.15-0.77,1.79-1.05
				c-0.2,0.08-0.4,0.17-0.6,0.25c0.4-0.17,0.82-0.3,1.24-0.4c0.6-0.14,1.19-0.63,1.49-1.15c0.31-0.54,0.45-1.33,0.25-1.93
				C155.09,258.85,153.81,258.12,152.44,258.43L152.44,258.43z"/>
		</g>
	</g>
	<g>
		<g>
			<path class="st3" d="M166.81,266.1c1.25,1.12,1.24,2.91,0.57,4.38c-0.94,2.04-2.96,3.53-4.7,4.85c-1.77,1.34-1.52,3.76,0.6,4.57
				c3.1,1.19,6.39-0.09,8.98-1.87c2.48-1.71,4.86-3.17,7.65-4.32c6.06-2.49,12.15-4.96,18.56-6.41c3.14-0.71,1.81-5.53-1.33-4.82
				c-6.1,1.37-11.92,3.68-17.69,6.05c-2.69,1.11-5.42,2.16-7.83,3.83c-2.01,1.4-4.39,3.72-7.01,2.71c0.2,1.52,0.4,3.05,0.6,4.57
				c2.89-2.2,5.78-4.49,7.07-8.01c1.12-3.05,0.56-6.85-1.93-9.07C167.95,260.43,164.4,263.95,166.81,266.1L166.81,266.1z"/>
		</g>
	</g>
	<g>
		<g>
			<path class="st3" d="M195.58,260.64c-10,1.22-20.39,2.88-28.84,8.79c1.01,1.31,2.02,2.62,3.03,3.93c3.22-3.15,6-6.72,8.27-10.61
				c-1.44-0.84-2.88-1.68-4.32-2.52c-0.74,1.47-1.47,2.94-2.21,4.41c-0.93,1.85,0.62,4.35,2.82,3.67c7.96-2.45,16.18-3.7,24.51-3.72
				c0-1.67,0-3.33,0-5c-8.12,0.55-16.25,1.14-24.29,2.46c-2.75,0.45-2.14,5.23,0.66,4.91c22.77-2.61,45.99,0.52,67.29,8.99
				c5.96,2.37,11.73,5.2,17.29,8.39c1.17,0.67,2.74,0.27,3.42-0.9c0.74-1.27,0.19-2.61-0.9-3.42
				c-15.09-11.18-33.59-17.55-52.33-18.36c-5.27-0.23-10.55,0.01-15.78,0.7c-1.34,0.18-2.5,1.02-2.5,2.5c0,1.21,1.15,2.68,2.5,2.5
				c17.9-2.35,36.38,0.75,52.5,8.89c4.58,2.32,8.96,5.03,13.09,8.08c0.84-1.44,1.68-2.88,2.52-4.32
				c-20.48-11.76-43.87-18.27-67.47-18.92c-6.55-0.18-13.11,0.11-19.62,0.86c0.22,1.64,0.44,3.27,0.66,4.91
				c7.6-1.25,15.28-1.76,22.96-2.29c3.18-0.22,3.25-5.01,0-5c-8.75,0.01-17.48,1.32-25.84,3.89c0.94,1.22,1.88,2.45,2.82,3.67
				c0.74-1.47,1.47-2.94,2.21-4.41c1.43-2.86-2.68-5.33-4.32-2.52c-2.06,3.54-4.55,6.73-7.48,9.6c-1.98,1.93,0.65,5.59,3.03,3.93
				c7.71-5.39,17.16-6.99,26.31-8.1c1.34-0.16,2.5-1.03,2.5-2.5C198.08,261.92,196.93,260.47,195.58,260.64L195.58,260.64z"/>
		</g>
	</g>
	<g>
		<g>
			<path class="st3" d="M194.91,263.05c2.5-0.42,5-0.84,7.51-1.27c1.21-0.2,1.96-1.63,1.79-2.74c-0.19-1.26-1.18-2.11-2.46-2.17
				c-10.33-0.47-20.66-0.94-30.99-1.4c0,1.67,0,3.33,0,5c9.72,0.25,19.44,0.12,29.15-0.38c3.19-0.17,3.24-4.97,0-5
				c-6.48-0.05-12.96-0.11-19.44-0.16c0,1.67,0,3.33,0,5c7.38-0.66,14.77-1.31,22.15-1.97c1.34-0.12,2.5-1.06,2.5-2.5
				c0-1.35-1.14-2.5-2.5-2.5c-6.96,0.01-13.92-0.46-20.8-1.49c-0.22,1.64-0.44,3.27-0.66,4.91c7.14-0.58,14.28-1.17,21.41-1.75
				c1.35-0.11,2.5-1.07,2.5-2.5c0-1.3-1.14-2.57-2.5-2.5c-6.52,0.33-13.04,0.33-19.56,0.01c0,1.67,0,3.33,0,5
				c5.05-0.59,10.11-1.18,15.16-1.77c1.34-0.16,2.5-1.04,2.5-2.5c0-1.41-1.15-2.43-2.5-2.5c-8.22-0.43-16.42-1.26-24.56-2.53
				c-0.22,1.64-0.44,3.27-0.66,4.91c5.69-0.67,11.4-1.17,17.12-1.48c3.2-0.18,3.23-4.88,0-5c-6.75-0.25-13.48-0.75-20.2-1.49
				c0,1.67,0,3.33,0,5c5.52-0.52,11.07-0.7,16.61-0.55c3.23,0.09,3.2-4.83,0-5c-7.16-0.39-14.31-0.78-21.47-1.16c0,1.67,0,3.33,0,5
				c8.25-0.49,16.51-0.78,24.78-0.87c3.24-0.03,3.19-4.8,0-5c-8.5-0.55-16.97-1.46-25.39-2.77c-0.22,1.64-0.44,3.27-0.66,4.91
				c5.67-0.33,11.36-0.46,17.04-0.39c-0.22-1.64-0.44-3.27-0.66-4.91c-2.52,0.39-5.07,0.57-7.62,0.6c0,1.67,0,3.33,0,5
				c7.65-0.49,15.29-0.98,22.94-1.47c-0.22-1.64-0.44-3.27-0.66-4.91c-4.55,0.88-9.13,1.43-13.75,1.65c-3.2,0.15-3.24,4.94,0,5
				c10.03,0.19,20.07,0.38,30.1,0.56c-0.22-1.64-0.44-3.27-0.66-4.91c-8.14,1.5-16.29,2.99-24.43,4.49
				c-2.77,0.51-2.14,5.05,0.66,4.91c10.72-0.52,21.3-2.51,31.82-4.51c-0.44-1.61-0.89-3.21-1.33-4.82
				c-9.37,2.75-18.74,5.5-28.11,8.25c0.64,1.52,1.28,3.05,1.93,4.57c7.11-3.19,14.23-6.38,21.34-9.57c2.57-1.15,0.74-5.51-1.93-4.57
				c-9.41,3.33-18.96,6.25-28.62,8.78c-1.31,0.34-2.1,1.79-1.75,3.08c0.4,1.44,1.73,1.94,3.08,1.75c12.15-1.72,24.27-3.7,36.33-5.95
				c-0.81-1.39-1.62-2.79-2.43-4.18c-1.43,1.36-3.33,1.89-5.21,2.33c-2.35,0.54-4.74,0.96-7.12,1.34c-4.96,0.8-9.97,1.28-15,1.52
				c0.22,1.64,0.44,3.27,0.66,4.91c11.19-2.67,22.41-5.17,33.66-7.53c-0.44-1.61-0.89-3.21-1.33-4.82
				c-7.22,2.3-14.67,3.64-22.24,3.96c0.22,1.64,0.44,3.27,0.66,4.91c7.94-2.13,15.94-4.02,23.99-5.66c2.72-0.56,2.16-5.21-0.66-4.91
				c-7.38,0.77-14.79,1.3-22.21,1.57c0.22,1.64,0.44,3.27,0.66,4.91c3.99-1.07,7.98-2.13,11.97-3.2c1.3-0.35,2.1-1.78,1.75-3.08
				c-0.38-1.4-1.74-1.99-3.08-1.75c-3.1,0.56-6.2,1.13-9.31,1.69c-2.76,0.5-2.14,5.08,0.66,4.91c7.45-0.45,14.87-1.2,22.27-2.21
				c-0.44-1.61-0.89-3.21-1.33-4.82c-4.27,0.91-8.54,1.81-12.82,2.72c-1.32,0.28-2.09,1.83-1.75,3.08c0.39,1.41,1.74,1.98,3.08,1.75
				c4.13-0.72,8.26-1.43,12.39-2.15c-0.44-1.61-0.89-3.21-1.33-4.82c-7.52,1.71-14.97,3.74-22.33,6.06
				c-1.18,0.37-1.98,1.49-1.79,2.74c0.17,1.11,1.21,2.32,2.46,2.17c5.51-0.67,11.03-1.34,16.54-2.01c-0.8-1.05-1.61-2.11-2.41-3.16
				c0.33-1.07,0.67-0.55,0.23-0.5c-0.39,0.04-0.86,0.23-1.24,0.34c-0.87,0.23-1.73,0.46-2.6,0.69c-1.81,0.48-3.62,0.96-5.43,1.45
				c-3.62,0.96-7.24,1.93-10.86,2.89c-1.3,0.35-2.1,1.78-1.75,3.08c0.39,1.42,1.74,1.96,3.08,1.75c4.48-0.71,8.96-1.42,13.45-2.14
				c-0.44-1.61-0.89-3.21-1.33-4.82c-4.94,1.2-9.8,2.65-14.59,4.34c-2.99,1.06-1.79,5.76,1.33,4.82c5.76-1.72,11.51-3.45,17.27-5.17
				c-0.64-1.52-1.28-3.05-1.93-4.57c-3.27,1.41-6.23,3.36-8.9,5.72c-1.93,1.7,0.12,4.79,2.43,4.18c5.94-1.58,11.8-3.41,17.58-5.48
				c2.99-1.07,1.83-5.64-1.33-4.82c-7.45,1.94-14.85,4.04-22.2,6.32c-1.29,0.4-2.11,1.74-1.75,3.08c0.39,1.43,1.73,1.94,3.08,1.75
				c5.16-0.75,10.35-1.3,15.55-1.68c-0.22-1.64-0.44-3.27-0.66-4.91c-6.41,1.88-12.72,4.09-18.91,6.62
				c-1.15,0.47-1.99,1.42-1.79,2.74c0.17,1.12,1.2,2.29,2.46,2.17c5.06-0.51,10.08-1.3,15.04-2.41c-0.44-1.61-0.89-3.21-1.33-4.82
				c-5.19,1.85-10.37,3.69-15.56,5.54c-3,1.07-1.83,5.63,1.33,4.82c5.07-1.3,10.13-2.61,15.2-3.91c-0.64-1.52-1.28-3.05-1.93-4.57
				c-3.47,1.49-6.95,2.98-10.42,4.48c-1.13,0.48-1.47,2.1-1.02,3.12c0.51,1.17,1.7,1.73,2.95,1.45c4.62-1.04,9.24-2.09,13.86-3.13
				c-0.44-1.61-0.89-3.21-1.33-4.82c-4.78,1.36-9.56,2.73-14.34,4.09c-3.1,0.88-1.8,5.56,1.33,4.82c6.1-1.44,12.34-1.82,18.57-1.22
				c-0.22-1.64-0.44-3.27-0.66-4.91c-3.61,1.15-7.27,1.54-11.04,1.23c-2.8-0.24-3.42,4.33-0.66,4.91
				c11.68,2.45,23.24,5.41,34.66,8.88c3.09,0.94,4.4-3.89,1.33-4.82c-8.92-2.71-17.91-5.16-26.98-7.33
				c-0.44,1.61-0.89,3.21-1.33,4.82c12.9,2.45,25.86,4.56,38.86,6.34c1.34,0.18,2.68-0.32,3.08-1.75c0.33-1.21-0.41-2.83-1.75-3.08
				c-9.65-1.76-19.29-3.51-28.94-5.27c-0.44,1.61-0.89,3.21-1.33,4.82c10.5,1.84,21.07,3.24,31.69,4.19
				c1.22,0.11,2.32-1.03,2.46-2.17c0.15-1.28-0.59-2.32-1.79-2.74c-11.99-4.24-24.3-7.5-36.59-10.74c-0.22,1.64-0.44,3.27-0.66,4.91
				c10.94,1.46,21.88,2.93,32.82,4.39c2.78,0.37,3.42-4.37,0.66-4.91c-10.98-2.16-22.03-3.92-33.14-5.31c0,1.67,0,3.33,0,5
				c8.45,0.92,16.88,2.02,25.29,3.31c0.22-1.64,0.44-3.27,0.66-4.91c-10.51-1.07-20.96-2.6-31.34-4.56
				c-0.22,1.64-0.44,3.27-0.66,4.91c11.88,0.93,23.77,1.86,35.65,2.79c2.79,0.22,3.43-4.37,0.66-4.91
				c-9.12-1.78-18.25-3.55-27.37-5.33c-0.22,1.64-0.44,3.27-0.66,4.91c9.58,0.81,19.16,1.62,28.75,2.43
				c2.78,0.23,3.45-4.46,0.66-4.91c-6.94-1.13-13.88-2.26-20.83-3.39c-0.22,1.64-0.44,3.27-0.66,4.91
				c7.23,0.74,14.46,1.48,21.69,2.22c2.78,0.28,3.43-4.4,0.66-4.91c-9.5-1.75-19.01-3.51-28.51-5.26c-0.22,1.64-0.44,3.27-0.66,4.91
				c11.27,1.32,22.55,2.63,33.82,3.95c2.8,0.33,3.4-4.32,0.66-4.91c-8.82-1.89-17.65-3.79-26.47-5.68
				c-0.22,1.64-0.44,3.27-0.66,4.91c6.33-0.17,12.65,0,18.96,0.51c2.78,0.22,3.45-4.44,0.66-4.91c-8.58-1.45-17.16-2.89-25.74-4.34
				c-0.22,1.64-0.44,3.27-0.66,4.91c8.75,0.07,17.48,0.58,26.17,1.55c1.34,0.15,2.5-1.26,2.5-2.5c0-1.48-1.15-2.34-2.5-2.5
				c-7.14-0.83-14.27-1.82-21.37-2.97c-0.22,1.64-0.44,3.27-0.66,4.91c8.47,0.56,16.92,1.28,25.36,2.16
				c2.8,0.29,3.41-4.33,0.66-4.91c-6.18-1.3-12.36-2.61-18.54-3.91c-0.22,1.64-0.44,3.27-0.66,4.91c5.24-0.22,10.48-0.06,15.7,0.49
				c2.78,0.29,3.45-4.46,0.66-4.91c-5.41-0.88-10.83-1.77-16.24-2.65c-0.22,1.64-0.44,3.27-0.66,4.91
				c5.78-0.01,11.56,0.35,17.28,1.17c0.22-1.64,0.44-3.27,0.66-4.91c-7.62-0.66-15.25-1.32-22.87-1.98c0,1.67,0,3.33,0,5
				c2.24-0.12,4.49-0.24,6.73-0.36c3.19-0.17,3.24-5.08,0-5c-6.71,0.17-13.43,0.33-20.14,0.5c-1.24,0.03-2.31,0.93-2.46,2.17
				c-0.13,1.1,0.55,2.57,1.79,2.74c5.06,0.71,10.11,1.43,15.17,2.14c0.22-1.64,0.44-3.27,0.66-4.91c-3.99,0.23-7.97,0.45-11.96,0.68
				c-2.69,0.15-3.55,4.26-0.66,4.91c4,0.91,8.01,1.82,12.01,2.72c0.22-1.64,0.44-3.27,0.66-4.91c-4.85-0.04-9.7,0.04-14.55,0.25
				c-1.24,0.05-2.31,0.91-2.46,2.17c-0.13,1.11,0.55,2.55,1.79,2.74c4.15,0.64,8.26,1.5,12.31,2.57c0-1.61,0-3.21,0-4.82
				c-3.99,0.59-7.97,1.17-11.96,1.76c-2.51,0.37-2.25,4.26,0,4.82c3.16,0.79,6.36,1.33,9.6,1.69c-0.22-1.64-0.44-3.27-0.66-4.91
				c-2.95,0.53-5.91,1.05-8.86,1.58c-2.52,0.45-2.23,4.19,0,4.82c2.93,0.82,5.93,1.34,8.96,1.62c-0.22-1.64-0.44-3.27-0.66-4.91
				c-3.02,0.76-6.04,1.53-9.06,2.29c-2.46,0.62-2.29,4.12,0,4.82c4.37,1.34,8.82,2.33,13.34,2.97c-0.2-1.52-0.4-3.05-0.6-4.57
				c-1.64,0.99-3.27,1.99-4.91,2.98c-1.51,0.92-1.74,3.46,0,4.32c1.39,0.69,2.79,1.38,4.18,2.07c0.42-1.55,0.84-3.11,1.26-4.66
				c-4.12,0.12-8.24,0.23-12.36,0.35c-3.24,0.09-3.19,4.78,0,5c12.04,0.83,24.05,1.95,36.03,3.38c0-1.67,0-3.33,0-5
				c-2.59,0.34-5.18,0.68-7.77,1.02c-1.23,0.16-2.3,0.83-2.46,2.17c-0.13,1.12,0.55,2.54,1.79,2.74c3.18,0.52,6.37,1.04,9.55,1.56
				c0.22-1.64,0.44-3.27,0.66-4.91c-4.09-0.11-8.17,0.04-12.23,0.46c-3.22,0.33-3.2,4.64,0,5c6.23,0.71,12.49,1.12,18.75,1.22
				c0-1.67,0-3.33,0-5c-2.44,0.19-4.88,0.39-7.31,0.58c-3.17,0.25-3.26,5,0,5c4.52,0,9-0.35,13.47-0.96
				c1.21-0.17,1.95-1.66,1.79-2.74c-0.18-1.22-1.19-2.16-2.46-2.17c-2-0.02-4-0.03-6-0.05c0.22,1.64,0.44,3.27,0.66,4.91
				c1.49-0.42,2.99-0.84,4.48-1.26c2.81-0.79,2.09-4.71-0.66-4.91c-4.43-0.32-8.86-0.65-13.29-0.97c0,1.67,0,3.33,0,5
				c4.29-0.26,8.56-0.87,12.75-1.84c2.38-0.55,2.38-4.27,0-4.82c-5.35-1.24-10.8-2.07-16.27-2.51c0,1.67,0,3.33,0,5
				c4.98-0.55,9.97-1.04,14.96-1.48c1.24-0.11,2.3-0.87,2.46-2.17c0.13-1.11-0.55-2.55-1.79-2.74c-5.26-0.81-10.55-1.48-15.85-1.97
				c0,1.67,0,3.33,0,5c4.23-0.34,8.47-0.68,12.7-1.02c3.17-0.25,3.26-4.9,0-5c-3.03-0.1-6.07-0.19-9.1-0.29c0,1.67,0,3.33,0,5
				c4.37-0.45,8.75-0.9,13.12-1.35c1.24-0.13,2.3-0.85,2.46-2.17c0.13-1.11-0.55-2.55-1.79-2.74c-4.14-0.64-8.27-1.29-12.41-1.93
				c-0.22,1.64-0.44,3.27-0.66,4.91c3.67-0.29,7.34-0.58,11.01-0.86c1.24-0.1,2.3-0.88,2.46-2.17c0.13-1.11-0.55-2.55-1.79-2.74
				c-4.23-0.65-8.46-1.3-12.69-1.95c0,1.61,0,3.21,0,4.82c3.64-0.61,7.33-0.77,11.01-0.57c1.35,0.07,2.5-1.2,2.5-2.5
				c0-1.46-1.15-2.37-2.5-2.5c-5.66-0.57-11.33-1.13-16.99-1.7c0,1.67,0,3.33,0,5c5.67-0.27,11.34-0.54,17.01-0.81
				c3.23-0.15,3.2-4.78,0-5c-4.2-0.28-8.35-0.92-12.45-1.88c-0.22,1.64-0.44,3.27-0.66,4.91c4.52-0.39,9.04-0.77,13.57-1.16
				c3.2-0.27,3.23-4.75,0-5c-2.9-0.22-5.76-0.69-8.59-1.36c0,1.61,0,3.21,0,4.82c2.67-0.45,5.34-0.89,8.02-1.34
				c2.83-0.47,2.08-4.9-0.66-4.91c-5.23-0.03-10.45-0.38-15.64-1.05c0,1.67,0,3.33,0,5c4.26-0.53,8.52-1.06,12.79-1.6
				c1.34-0.17,2.5-1.03,2.5-2.5c0-1.35-1.14-2.51-2.5-2.5c-5.96,0.05-11.92,0.11-17.88,0.16c0.22,1.64,0.44,3.27,0.66,4.91
				c3.53-1.25,7.15-2.19,10.84-2.81c2.81-0.47,2.1-4.95-0.66-4.91c-4.04,0.05-8.08-0.08-12.11-0.39c0.22,1.64,0.44,3.27,0.66,4.91
				c5.33-0.78,10.65-1.56,15.98-2.33c1.21-0.18,1.96-1.65,1.79-2.74c-0.18-1.2-1.19-2.18-2.46-2.17
				c-7.34,0.09-14.69,0.17-22.03,0.26c0,1.67,0,3.33,0,5c5.16-0.66,10.32-1.32,15.48-1.97c1.34-0.17,2.5-1.03,2.5-2.5
				c0-1.26-1.15-2.62-2.5-2.5c-4.86,0.43-9.73,0.61-14.61,0.54c0,1.67,0,3.33,0,5c2.71-0.32,5.43-0.64,8.14-0.97
				c1.34-0.16,2.5-1.04,2.5-2.5c0-1.29-1.15-2.58-2.5-2.5c-4.54,0.27-9.08,0.55-13.62,0.82c0.22,1.64,0.44,3.27,0.66,4.91
				c3.94-0.59,7.91-0.96,11.89-1.15c0-1.67,0-3.33,0-5c-2.1,0.17-4.21,0.33-6.31,0.5c-1.35,0.11-2.5,1.07-2.5,2.5
				c0,1.32,1.14,2.55,2.5,2.5c7.49-0.28,14.97-0.78,22.43-1.49c1.34-0.13,2.5-1.06,2.5-2.5c0-1.33-1.14-2.53-2.5-2.5
				c-6.51,0.16-13.01,0.31-19.52,0.47c0,1.67,0,3.33,0,5c7.79-0.85,15.59-1.7,23.38-2.55c1.34-0.15,2.5-1.04,2.5-2.5
				c0-1.26-1.15-2.62-2.5-2.5c-1.85,0.17-3.64,0.5-5.4,1.09c-2.53,0.85-2.3,5.1,0.66,4.91c4.16-0.26,8.29-0.87,12.34-1.86
				c2.73-0.66,2.16-4.97-0.66-4.91c-3.12,0.07-6.24,0.13-9.35,0.2c0.22,1.64,0.44,3.27,0.66,4.91c1.94-0.58,3.89-1.16,5.83-1.74
				c1.18-0.35,1.98-1.51,1.79-2.74c-0.16-1.1-1.21-2.33-2.46-2.17c-0.96,0.13-1.91,0.25-2.87,0.38c-1.34,0.18-2.5,1.02-2.5,2.5
				c0,1.34,1.14,2.52,2.5,2.5c2.31-0.04,4.61-0.08,6.92-0.12c-0.22-1.64-0.44-3.27-0.66-4.91c-0.39,0.15-0.79,0.3-1.18,0.45
				c-3,1.15-1.86,5.4,1.33,4.82c0.71-0.13,1.42-0.26,2.13-0.39c-0.64-1.52-1.28-3.05-1.93-4.57c-3.12,1.46-6.24,2.91-9.36,4.37
				c-1.94,0.91-1.42,4.13,0.6,4.57c3.05,0.67,6.16,0.93,9.28,0.7c0-1.67,0-3.33,0-5c-5.49,0.5-10.99,1-16.48,1.51
				c-1.34,0.12-2.5,1.06-2.5,2.5c0,1.34,1.14,2.52,2.5,2.5c4.14-0.05,8.28-0.11,12.42-0.16c0-1.67,0-3.33,0-5
				c-3.88,0.51-7.77,1.03-11.65,1.54c-1.34,0.18-2.5,1.02-2.5,2.5c0,1.3,1.14,2.57,2.5,2.5c2.83-0.14,5.66-0.28,8.5-0.42
				c-0.22-1.64-0.44-3.27-0.66-4.91c-2.3,0.66-4.6,1.33-6.9,1.99c-1.3,0.37-2.11,1.76-1.75,3.08c0.39,1.41,1.74,1.97,3.08,1.75
				c2.2-0.37,4.4-0.74,6.61-1.11c-0.81-1.39-1.62-2.79-2.43-4.18c-0.68,0.8-1.41,1.56-2.25,2.18c-0.91,0.67-1.46,1.67-1.15,2.82
				c0.27,1,1.33,1.93,2.41,1.84c2.49-0.21,4.99-0.42,7.48-0.63c-0.59-1.42-1.18-2.85-1.77-4.27c-0.65,0.58-1.3,1.17-1.95,1.75
				c-1.83,1.64,0.09,4.99,2.43,4.18c1.76-0.61,3.53-1.22,5.29-1.83c3.04-1.05,1.83-5.49-1.33-4.82c-2.34,0.5-4.68,0.81-7.06,0.96
				c0.59,1.42,1.18,2.85,1.77,4.27c0.5-0.45,1.04-0.73,1.68-0.93c-0.44-1.61-0.89-3.21-1.33-4.82c-1.1,0.39-2.2,0.78-3.3,1.17
				c0.64,1.52,1.28,3.05,1.93,4.57c1.57-0.73,3.22-1.26,4.9-1.66c-1.03-1.03-2.05-2.05-3.08-3.08c-0.11,0.04-0.06-0.02,0.16-0.18
				c-1,0.75-1.56,1.9-1.02,3.12c0.47,1.06,1.76,1.88,2.95,1.45c0.86-0.31,1.73-0.63,2.59-0.94c-0.94-1.22-1.88-2.45-2.82-3.67
				c-0.29,0.47-0.57,0.95-0.86,1.42c-0.95,1.58,0.26,3.84,2.16,3.76c1.65-0.07,3.1-0.45,4.6-1.13c-1.22-0.94-2.45-1.88-3.67-2.82
				c-0.38,1.27-0.77,2.54-1.15,3.81c0.58-0.58,1.16-1.16,1.75-1.75c-4.5,0.66-9,1.32-13.51,1.98c-1.21,0.18-1.96,1.65-1.79,2.74
				c0.2,1.3,1.18,2.05,2.46,2.17c3.07,0.29,6.13,0.58,9.2,0.87c0-1.67,0-3.33,0-5c-2.26,0.21-4.52,0.43-6.79,0.64
				c-3.18,0.3-3.25,4.79,0,5c2.47,0.16,4.94,0.33,7.4,0.49c-0.42-1.55-0.84-3.11-1.26-4.66c-0.74,0.55-1.48,1.11-2.23,1.66
				c-1.62,1.21-1.67,3.99,0.6,4.57c2.19,0.56,4.4,1,6.64,1.32c-0.58-1.03-1.16-2.05-1.75-3.08c-0.44,1.42-0.65,2.9-0.66,4.38
				c1.67,0,3.33,0,5,0c-0.15-3.55-0.63-7.08-1.43-10.54c-0.54-2.31-4.39-2.46-4.82,0c-0.77,4.39-0.99,8.82-0.54,13.26
				c0.11,1.11,0.7,2.1,1.84,2.41c1.05,0.29,2.29-0.19,2.82-1.15c3.18-5.71,4.05-12.41,2.44-18.74c-0.79-3.12-5.62-1.8-4.82,1.33
				c1.28,5.03,0.59,10.36-1.94,14.89c1.55,0.42,3.11,0.84,4.66,1.26c-0.41-3.98-0.33-7.99,0.36-11.93c-1.61,0-3.21,0-4.82,0
				c0.71,3.04,1.12,6.09,1.26,9.21c0.13,3.2,4.98,3.23,5,0c0.01-1.08,0.16-2.02,0.48-3.05c0.36-1.17-0.43-2.89-1.75-3.08
				c-2.24-0.32-4.45-0.76-6.64-1.32c0.2,1.52,0.4,3.05,0.6,4.57c0.74-0.55,1.48-1.11,2.23-1.66c1.97-1.47,1.34-4.49-1.26-4.66
				c-2.47-0.16-4.94-0.33-7.4-0.49c0,1.67,0,3.33,0,5c2.26-0.21,4.52-0.43,6.79-0.64c3.21-0.3,3.22-4.69,0-5
				c-3.07-0.29-6.13-0.58-9.2-0.87c0.22,1.64,0.44,3.27,0.66,4.91c4.5-0.66,9-1.32,13.51-1.98c0.85-0.12,1.52-0.99,1.75-1.75
				c0.38-1.27,0.77-2.54,1.15-3.81c0.69-2.27-1.81-3.67-3.67-2.82c-0.65,0.3-1.36,0.42-2.07,0.45c0.72,1.25,1.44,2.51,2.16,3.76
				c0.29-0.47,0.57-0.95,0.86-1.42c1.06-1.77-0.73-4.43-2.82-3.67c-0.86,0.31-1.73,0.63-2.59,0.94c0.64,1.52,1.28,3.05,1.93,4.57
				c1.05-0.79,1.67-1.58,2.14-2.81c0.71-1.88-1.38-3.48-3.08-3.08c-2.11,0.5-4.13,1.25-6.1,2.17c-2.55,1.19-0.75,5.51,1.93,4.57
				c1.1-0.39,2.2-0.78,3.3-1.17c3-1.06,1.79-5.77-1.33-4.82c-1.48,0.45-2.73,1.18-3.88,2.21c-1.57,1.41-0.37,4.4,1.77,4.27
				c2.82-0.17,5.63-0.55,8.39-1.14c-0.44-1.61-0.89-3.21-1.33-4.82c-1.76,0.61-3.53,1.22-5.29,1.83c0.81,1.39,1.62,2.79,2.43,4.18
				c0.65-0.58,1.3-1.17,1.95-1.75c1.55-1.39,0.38-4.45-1.77-4.27c-2.49,0.21-4.99,0.42-7.48,0.63c0.42,1.55,0.84,3.11,1.26,4.66
				c1.2-0.88,2.3-1.82,3.27-2.96c1.68-1.97,0.05-4.6-2.43-4.18c-2.2,0.37-4.4,0.74-6.61,1.11c0.44,1.61,0.89,3.21,1.33,4.82
				c2.3-0.66,4.6-1.33,6.9-1.99c2.64-0.76,2.23-5.05-0.66-4.91c-2.83,0.14-5.66,0.28-8.5,0.42c0,1.67,0,3.33,0,5
				c3.88-0.51,7.77-1.03,11.65-1.54c1.34-0.18,2.5-1.02,2.5-2.5c0-1.34-1.14-2.52-2.5-2.5c-4.14,0.05-8.28,0.11-12.42,0.16
				c0,1.67,0,3.33,0,5c5.49-0.5,10.99-1,16.48-1.51c1.34-0.12,2.5-1.06,2.5-2.5c0-1.28-1.15-2.6-2.5-2.5
				c-2.68,0.2-5.33,0.05-7.95-0.52c0.2,1.52,0.4,3.05,0.6,4.57c3.12-1.46,6.24-2.91,9.36-4.37c1.11-0.52,1.48-2.08,1.02-3.12
				c-0.53-1.2-1.69-1.68-2.95-1.45c-0.71,0.13-1.42,0.26-2.13,0.39c0.44,1.61,0.89,3.21,1.33,4.82c0.39-0.15,0.79-0.3,1.18-0.45
				c1.16-0.44,1.99-1.44,1.79-2.74c-0.18-1.2-1.19-2.19-2.46-2.17c-2.31,0.04-4.61,0.08-6.92,0.12c0,1.67,0,3.33,0,5
				c0.96-0.13,1.91-0.25,2.87-0.38c-0.22-1.64-0.44-3.27-0.66-4.91c-1.94,0.58-3.89,1.16-5.83,1.74c-2.65,0.79-2.22,4.97,0.66,4.91
				c3.12-0.07,6.24-0.13,9.35-0.2c-0.22-1.64-0.44-3.27-0.66-4.91c-3.62,0.88-7.29,1.45-11.01,1.68c0.22,1.64,0.44,3.27,0.66,4.91
				c1.32-0.45,2.67-0.78,4.07-0.91c0-1.67,0-3.33,0-5c-7.79,0.85-15.59,1.7-23.38,2.55c-1.34,0.15-2.5,1.04-2.5,2.5
				c0,1.33,1.14,2.53,2.5,2.5c6.51-0.16,13.01-0.31,19.52-0.47c0-1.67,0-3.33,0-5c-7.46,0.71-14.94,1.21-22.43,1.49
				c0,1.67,0,3.33,0,5c2.1-0.17,4.21-0.33,6.31-0.5c1.35-0.11,2.5-1.07,2.5-2.5c0-1.3-1.14-2.56-2.5-2.5
				c-4.43,0.21-8.83,0.67-13.22,1.33c-2.78,0.42-2.13,5.08,0.66,4.91c4.54-0.27,9.08-0.55,13.62-0.82c0-1.67,0-3.33,0-5
				c-2.71,0.32-5.43,0.64-8.14,0.97c-1.34,0.16-2.5,1.04-2.5,2.5c0,1.37,1.14,2.48,2.5,2.5c4.88,0.07,9.75-0.11,14.61-0.54
				c0-1.67,0-3.33,0-5c-5.16,0.66-10.32,1.32-15.48,1.97c-1.34,0.17-2.5,1.03-2.5,2.5c0,1.34,1.14,2.52,2.5,2.5
				c7.34-0.09,14.69-0.17,22.03-0.26c-0.22-1.64-0.44-3.27-0.66-4.91c-5.33,0.78-10.65,1.56-15.98,2.33
				c-1.21,0.18-1.96,1.65-1.79,2.74c0.19,1.29,1.18,2.07,2.46,2.17c4.03,0.32,8.07,0.45,12.11,0.39c-0.22-1.64-0.44-3.27-0.66-4.91
				c-3.69,0.62-7.31,1.56-10.84,2.81c-2.56,0.91-2.29,4.94,0.66,4.91c5.96-0.05,11.92-0.11,17.88-0.16c0-1.67,0-3.33,0-5
				c-4.26,0.53-8.52,1.06-12.79,1.6c-3.21,0.4-3.21,4.59,0,5c5.19,0.67,10.41,1.02,15.64,1.05c-0.22-1.64-0.44-3.27-0.66-4.91
				c-2.67,0.45-5.34,0.89-8.02,1.34c-2.48,0.41-2.29,4.27,0,4.82c3.26,0.78,6.58,1.28,9.92,1.54c0-1.67,0-3.33,0-5
				c-4.52,0.39-9.04,0.77-13.57,1.16c-1.24,0.11-2.3,0.87-2.46,2.17c-0.14,1.18,0.56,2.45,1.79,2.74c4.53,1.07,9.14,1.75,13.78,2.06
				c0-1.67,0-3.33,0-5c-5.67,0.27-11.34,0.54-17.01,0.81c-3.26,0.16-3.16,4.68,0,5c5.66,0.57,11.33,1.13,16.99,1.7
				c0-1.67,0-3.33,0-5c-4.14-0.23-8.25,0.06-12.34,0.74c-2.37,0.4-2.4,4.45,0,4.82c4.23,0.65,8.46,1.3,12.69,1.95
				c0.22-1.64,0.44-3.27,0.66-4.91c-3.67,0.29-7.34,0.58-11.01,0.86c-1.24,0.1-2.3,0.88-2.46,2.17c-0.13,1.11,0.55,2.55,1.79,2.74
				c4.14,0.64,8.27,1.29,12.41,1.93c0.22-1.64,0.44-3.27,0.66-4.91c-4.37,0.45-8.75,0.9-13.12,1.35c-3.14,0.32-3.28,4.9,0,5
				c3.03,0.1,6.07,0.19,9.1,0.29c0-1.67,0-3.33,0-5c-4.23,0.34-8.47,0.68-12.7,1.02c-3.23,0.26-3.2,4.7,0,5
				c4.86,0.45,9.7,1.05,14.52,1.79c0.22-1.64,0.44-3.27,0.66-4.91c-4.99,0.44-9.98,0.93-14.96,1.48c-3.17,0.35-3.25,4.74,0,5
				c5.04,0.41,10.02,1.19,14.95,2.33c0-1.61,0-3.21,0-4.82c-3.77,0.87-7.57,1.43-11.42,1.67c-3.23,0.2-3.21,4.77,0,5
				c4.43,0.32,8.86,0.65,13.29,0.97c-0.22-1.64-0.44-3.27-0.66-4.91c-1.49,0.42-2.99,0.84-4.48,1.26c-2.71,0.77-2.18,4.89,0.66,4.91
				c2,0.02,4,0.03,6,0.05c-0.22-1.64-0.44-3.27-0.66-4.91c-4.02,0.55-8.08,0.79-12.14,0.78c0,1.67,0,3.33,0,5
				c2.44-0.19,4.88-0.39,7.31-0.58c3.17-0.25,3.26-4.95,0-5c-6.27-0.1-12.52-0.51-18.75-1.22c0,1.67,0,3.33,0,5
				c4.07-0.42,8.15-0.57,12.23-0.46c2.75,0.07,3.49-4.45,0.66-4.91c-3.18-0.52-6.37-1.04-9.55-1.56c-0.22,1.64-0.44,3.27-0.66,4.91
				c2.59-0.34,5.18-0.68,7.77-1.02c3.19-0.42,3.23-4.61,0-5c-11.98-1.43-23.99-2.56-36.03-3.38c0,1.67,0,3.33,0,5
				c4.12-0.12,8.24-0.23,12.36-0.35c2.33-0.07,3.59-3.51,1.26-4.66c-1.39-0.69-2.79-1.38-4.18-2.07c0,1.44,0,2.88,0,4.32
				c1.64-0.99,3.27-1.99,4.91-2.98c1.65-1,1.65-4.25-0.6-4.57c-4.52-0.64-8.97-1.63-13.34-2.97c0,1.61,0,3.21,0,4.82
				c3.02-0.76,6.04-1.53,9.06-2.29c2.88-0.73,2.02-4.67-0.66-4.91c-2.59-0.23-5.13-0.73-7.63-1.44c0,1.61,0,3.21,0,4.82
				c2.95-0.53,5.91-1.05,8.86-1.58c1.21-0.22,1.96-1.62,1.79-2.74c-0.2-1.31-1.18-2.03-2.46-2.17c-2.79-0.3-5.54-0.82-8.27-1.51
				c0,1.61,0,3.21,0,4.82c3.99-0.59,7.97-1.17,11.96-1.76c2.53-0.37,2.22-4.23,0-4.82c-4.06-1.07-8.16-1.93-12.31-2.57
				c-0.22,1.64-0.44,3.27-0.66,4.91c4.85-0.21,9.7-0.29,14.55-0.25c2.77,0.02,3.46-4.28,0.66-4.91c-4-0.91-8.01-1.82-12.01-2.72
				c-0.22,1.64-0.44,3.27-0.66,4.91c3.99-0.23,7.97-0.45,11.96-0.68c1.24-0.07,2.3-0.9,2.46-2.17c0.13-1.1-0.55-2.57-1.79-2.74
				c-5.06-0.71-10.11-1.43-15.17-2.14c-0.22,1.64-0.44,3.27-0.66,4.91c6.71-0.17,13.43-0.33,20.14-0.5c0-1.67,0-3.33,0-5
				c-2.24,0.12-4.49,0.24-6.73,0.36c-3.24,0.17-3.19,4.72,0,5c7.62,0.66,15.25,1.32,22.87,1.98c2.77,0.24,3.46-4.51,0.66-4.91
				c-6.17-0.88-12.37-1.35-18.61-1.34c-2.72,0-3.52,4.44-0.66,4.91c5.41,0.88,10.83,1.77,16.24,2.65c0.22-1.64,0.44-3.27,0.66-4.91
				c-5.22-0.55-10.46-0.71-15.7-0.49c-2.69,0.12-3.54,4.3-0.66,4.91c6.18,1.3,12.36,2.61,18.54,3.91c0.22-1.64,0.44-3.27,0.66-4.91
				c-8.44-0.88-16.89-1.6-25.36-2.16c-2.77-0.18-3.46,4.46-0.66,4.91c7.54,1.22,15.11,2.27,22.69,3.15c0-1.67,0-3.33,0-5
				c-8.69-0.96-17.43-1.48-26.17-1.55c-2.73-0.02-3.51,4.43-0.66,4.91c8.58,1.45,17.16,2.89,25.74,4.34
				c0.22-1.64,0.44-3.27,0.66-4.91c-6.31-0.5-12.63-0.67-18.96-0.51c-2.72,0.07-3.52,4.3-0.66,4.91c8.82,1.89,17.65,3.79,26.47,5.68
				c0.22-1.64,0.44-3.27,0.66-4.91c-11.27-1.32-22.55-2.63-33.82-3.95c-2.78-0.32-3.43,4.4-0.66,4.91
				c9.5,1.75,19.01,3.51,28.51,5.26c0.22-1.64,0.44-3.27,0.66-4.91c-7.23-0.74-14.46-1.48-21.69-2.22
				c-2.78-0.28-3.45,4.46-0.66,4.91c6.94,1.13,13.88,2.26,20.83,3.39c0.22-1.64,0.44-3.27,0.66-4.91
				c-9.58-0.81-19.16-1.62-28.75-2.43c-2.79-0.24-3.43,4.37-0.66,4.91c9.12,1.78,18.25,3.55,27.37,5.33
				c0.22-1.64,0.44-3.27,0.66-4.91c-11.88-0.93-23.77-1.86-35.65-2.79c-2.78-0.22-3.44,4.39-0.66,4.91
				c10.81,2.05,21.72,3.62,32.66,4.74c2.77,0.28,3.45-4.48,0.66-4.91c-8.85-1.36-17.72-2.52-26.62-3.48c-1.34-0.15-2.5,1.25-2.5,2.5
				c0,1.49,1.15,2.33,2.5,2.5c10.66,1.34,21.27,3.06,31.81,5.13c0.22-1.64,0.44-3.27,0.66-4.91c-10.94-1.46-21.88-2.93-32.82-4.39
				c-1.21-0.16-2.33,1.08-2.46,2.17c-0.14,1.21,0.57,2.42,1.79,2.74c12.29,3.24,24.59,6.5,36.59,10.74
				c0.22-1.64,0.44-3.27,0.66-4.91c-10.17-0.92-20.3-2.25-30.36-4.02c-1.33-0.23-2.69,0.36-3.08,1.75
				c-0.33,1.21,0.41,2.83,1.75,3.08c9.65,1.76,19.29,3.51,28.94,5.27c0.44-1.61,0.89-3.21,1.33-4.82
				c-13.01-1.78-25.97-3.9-38.86-6.34c-1.33-0.25-2.7,0.37-3.08,1.75c-0.35,1.27,0.43,2.76,1.75,3.08
				c9.06,2.17,18.06,4.61,26.98,7.33c0.44-1.61,0.89-3.21,1.33-4.82c-11.42-3.47-22.98-6.43-34.66-8.88
				c-0.22,1.64-0.44,3.27-0.66,4.91c4.17,0.35,8.39-0.14,12.37-1.4c2.79-0.89,2.1-4.65-0.66-4.91c-6.66-0.64-13.39-0.14-19.9,1.4
				c0.44,1.61,0.89,3.21,1.33,4.82c4.78-1.36,9.56-2.73,14.34-4.09c3.1-0.89,1.8-5.53-1.33-4.82c-4.62,1.04-9.24,2.09-13.86,3.13
				c0.64,1.52,1.28,3.05,1.93,4.57c3.47-1.49,6.95-2.98,10.42-4.48c1.13-0.48,1.47-2.1,1.02-3.12c-0.5-1.14-1.72-1.77-2.95-1.45
				c-5.07,1.3-10.13,2.61-15.2,3.91c0.44,1.61,0.89,3.21,1.33,4.82c5.19-1.85,10.37-3.69,15.56-5.54c3.01-1.07,1.84-5.53-1.33-4.82
				c-4.53,1.01-9.1,1.76-13.71,2.23c0.22,1.64,0.44,3.27,0.66,4.91c6.19-2.53,12.5-4.74,18.91-6.62c2.61-0.77,2.24-5.12-0.66-4.91
				c-5.65,0.42-11.27,1.05-16.88,1.86c0.44,1.61,0.89,3.21,1.33,4.82c7.35-2.28,14.75-4.38,22.2-6.32
				c-0.44-1.61-0.89-3.21-1.33-4.82c-5.78,2.08-11.65,3.91-17.58,5.48c0.81,1.39,1.62,2.79,2.43,4.18c2.35-2.07,5.02-3.69,7.89-4.94
				c2.62-1.13,0.75-5.37-1.93-4.57c-5.76,1.72-11.51,3.45-17.27,5.17c0.44,1.61,0.89,3.21,1.33,4.82c4.79-1.7,9.65-3.15,14.59-4.34
				c1.31-0.32,2.1-1.8,1.75-3.08c-0.39-1.42-1.74-1.96-3.08-1.75c-4.48,0.71-8.96,1.42-13.45,2.14c0.44,1.61,0.89,3.21,1.33,4.82
				c4.25-1.13,8.5-2.26,12.74-3.4c2.05-0.54,4.09-1.09,6.14-1.63c1.99-0.53,3.83-1.17,4.49-3.33c0.44-1.41-0.8-3.36-2.41-3.16
				c-5.51,0.67-11.03,1.34-16.54,2.01c0.22,1.64,0.44,3.27,0.66,4.91c7.36-2.33,14.8-4.35,22.33-6.06c1.32-0.3,2.09-1.82,1.75-3.08
				c-0.39-1.41-1.74-1.98-3.08-1.75c-4.13,0.72-8.26,1.43-12.39,2.15c0.44,1.61,0.89,3.21,1.33,4.82c4.27-0.91,8.54-1.81,12.82-2.72
				c1.32-0.28,2.09-1.83,1.75-3.08c-0.4-1.44-1.73-1.93-3.08-1.75c-6.95,0.94-13.94,1.61-20.94,2.03c0.22,1.64,0.44,3.27,0.66,4.91
				c3.1-0.56,6.2-1.13,9.31-1.69c-0.44-1.61-0.89-3.21-1.33-4.82c-3.99,1.07-7.98,2.13-11.97,3.2c-2.68,0.72-2.2,5.02,0.66,4.91
				c7.42-0.27,14.83-0.8,22.21-1.57c-0.22-1.64-0.44-3.27-0.66-4.91c-8.05,1.65-16.05,3.53-23.99,5.66
				c-2.68,0.72-2.2,5.03,0.66,4.91c8-0.34,15.94-1.71,23.57-4.14c3.08-0.98,1.82-5.48-1.33-4.82c-11.26,2.35-22.48,4.86-33.66,7.53
				c-2.71,0.65-2.17,5.04,0.66,4.91c5.63-0.27,11.24-0.86,16.8-1.78c4.8-0.79,10.37-1.37,14.06-4.88c1.94-1.84-0.12-4.61-2.43-4.18
				c-12.07,2.25-24.18,4.23-36.33,5.95c0.44,1.61,0.89,3.21,1.33,4.82c9.66-2.52,19.21-5.45,28.62-8.78
				c-0.64-1.52-1.28-3.05-1.93-4.57c-7.11,3.19-14.23,6.38-21.34,9.57c-2.61,1.17-0.75,5.35,1.93,4.57
				c9.37-2.75,18.74-5.5,28.11-8.25c3.12-0.92,1.8-5.42-1.33-4.82c-10.09,1.92-20.21,3.84-30.49,4.33c0.22,1.64,0.44,3.27,0.66,4.91
				c8.14-1.5,16.29-2.99,24.43-4.49c2.84-0.52,2.07-4.86-0.66-4.91c-10.03-0.19-20.07-0.38-30.1-0.56c0,1.67,0,3.33,0,5
				c5.06-0.24,10.1-0.86,15.08-1.83c2.75-0.53,2.15-5.09-0.66-4.91c-7.65,0.49-15.29,0.98-22.94,1.47c-3.18,0.2-3.25,5.04,0,5
				c3-0.04,5.98-0.32,8.95-0.78c2.85-0.44,2.07-4.88-0.66-4.91c-5.68-0.07-11.37,0.06-17.04,0.39c-1.24,0.07-2.3,0.89-2.46,2.17
				c-0.13,1.11,0.55,2.55,1.79,2.74c8.86,1.38,17.77,2.37,26.72,2.95c0-1.67,0-3.33,0-5c-8.27,0.09-16.53,0.38-24.78,0.87
				c-3.21,0.19-3.22,4.83,0,5c7.16,0.39,14.31,0.78,21.47,1.16c0-1.67,0-3.33,0-5c-5.55-0.16-11.09,0.03-16.61,0.55
				c-3.23,0.3-3.2,4.65,0,5c6.71,0.74,13.45,1.23,20.2,1.49c0-1.67,0-3.33,0-5c-5.72,0.31-11.43,0.81-17.12,1.48
				c-1.24,0.15-2.3,0.84-2.46,2.17c-0.13,1.11,0.55,2.55,1.79,2.74c8.58,1.34,17.22,2.26,25.89,2.71c0-1.67,0-3.33,0-5
				c-5.05,0.59-10.11,1.18-15.16,1.77c-1.34,0.16-2.5,1.04-2.5,2.5c0,1.41,1.15,2.43,2.5,2.5c6.52,0.32,13.04,0.32,19.56-0.01
				c0-1.67,0-3.33,0-5c-7.14,0.58-14.28,1.17-21.41,1.75c-1.24,0.1-2.3,0.87-2.46,2.17c-0.13,1.11,0.55,2.56,1.79,2.74
				c7.33,1.09,14.72,1.68,22.13,1.67c0-1.67,0-3.33,0-5c-7.38,0.66-14.77,1.31-22.15,1.97c-3.15,0.28-3.27,4.97,0,5
				c6.48,0.05,12.96,0.11,19.44,0.16c0-1.67,0-3.33,0-5c-9.71,0.51-19.43,0.63-29.15,0.38c-3.23-0.08-3.2,4.85,0,5
				c10.33,0.47,20.66,0.94,30.99,1.4c-0.22-1.64-0.44-3.27-0.66-4.91c-2.5,0.42-5,0.84-7.51,1.27c-1.33,0.22-2.08,1.87-1.75,3.08
				C192.23,262.72,193.58,263.28,194.91,263.05L194.91,263.05z"/>
		</g>
	</g>
	<g>
		<g>
			<path class="st3" d="M268.28,230.96c0.49,5.96,0.06,11.92-1.42,17.71c-0.7,2.73-1.75,5.38-2.25,8.16
				c-0.57,3.2-0.37,6.37-0.06,9.59c1.64-0.22,3.27-0.44,4.91-0.66c-2.99-7.38-4.07-15.25-3.19-23.16c-1.64,0.22-3.27,0.44-4.91,0.66
				c1.75,6.04,3.51,12.08,5.26,18.11c0.65,2.25,3.31,2.23,4.57,0.6c2.66-3.46,2.78-8.05,2.71-12.22c-1.64,0.22-3.27,0.44-4.91,0.66
				c0.26,1.7,0.53,3.39,0.79,5.09c0.21,1.34,1.88,2.07,3.08,1.75c1.42-0.39,1.95-1.74,1.75-3.08c-0.26-1.7-0.53-3.39-0.79-5.09
				c-0.44-2.81-4.96-2.1-4.91,0.66c0.06,3.37,0.13,6.9-2.02,9.7c1.52,0.2,3.05,0.4,4.57,0.6c-1.75-6.04-3.51-12.08-5.26-18.11
				c-0.83-2.87-4.61-2.03-4.91,0.66c-0.93,8.28,0.24,16.77,3.37,24.49c0.47,1.15,1.42,1.99,2.74,1.79c1.13-0.17,2.29-1.2,2.17-2.46
				c-0.28-2.95-0.61-5.99,0.01-8.92c0.6-2.85,1.67-5.58,2.34-8.41c1.41-5.92,1.88-12.06,1.38-18.13c-0.11-1.35-1.07-2.5-2.5-2.5
				C269.52,228.46,268.17,229.61,268.28,230.96L268.28,230.96z"/>
		</g>
	</g>
	<g>
		<g>
			<path class="st3" d="M273.09,234.03c0.3,2.35,0.3,4.72,0,7.07c-0.07,0.59,0.33,1.37,0.73,1.77c0.43,0.43,1.15,0.76,1.77,0.73
				c0.65-0.03,1.32-0.24,1.77-0.73c0.13-0.17,0.26-0.34,0.39-0.51c0.23-0.39,0.34-0.81,0.34-1.26c0.3-2.35,0.29-4.72,0-7.07
				c-0.09-0.69-0.22-1.26-0.73-1.77c-0.43-0.43-1.15-0.76-1.77-0.73c-0.65,0.03-1.32,0.24-1.77,0.73
				C273.41,232.72,273.01,233.39,273.09,234.03L273.09,234.03z"/>
		</g>
	</g>
	<g>
		<g>
			<path class="st3" d="M259.48,221.63c-0.76,0.14-1.53,0.28-2.29,0.42c-0.42,0.12-0.79,0.33-1.1,0.64
				c-0.31,0.31-0.52,0.68-0.64,1.1c-0.23,0.84,0,1.82,0.64,2.43c0.25,0.24,0.5,0.47,0.75,0.71c0.23,0.24,0.49,0.42,0.8,0.52
				c0.3,0.16,0.62,0.23,0.96,0.22c0.34,0.01,0.67-0.06,0.96-0.22c0.31-0.1,0.58-0.27,0.8-0.52c0.13-0.17,0.26-0.34,0.39-0.51
				c0.23-0.39,0.34-0.81,0.34-1.26c-0.03-0.22-0.06-0.44-0.09-0.66c-0.12-0.42-0.33-0.79-0.64-1.1c-0.25-0.24-0.5-0.47-0.75-0.71
				c-0.37,1.39-0.74,2.79-1.1,4.18c0.76-0.14,1.53-0.28,2.29-0.42c0.33-0.08,0.61-0.23,0.85-0.45c0.27-0.18,0.49-0.41,0.64-0.7
				c0.18-0.29,0.28-0.6,0.3-0.93c0.07-0.33,0.06-0.66-0.04-1c-0.08-0.2-0.17-0.4-0.25-0.6c-0.22-0.38-0.52-0.67-0.9-0.9
				c-0.2-0.08-0.4-0.17-0.6-0.25C260.37,221.52,259.93,221.52,259.48,221.63L259.48,221.63z"/>
		</g>
	</g>
	<g>
		<g>
			<path class="st3" d="M246.73,273.58c8.12,2.18,16.52,3.33,24.92,3.4c-0.59-1.42-1.18-2.85-1.77-4.27
				c-2.11,1.63-5.59,1.05-8.03,0.9c-3.8-0.23-7.59-0.1-11.36,0.4c-1.34,0.18-2.5,1.02-2.5,2.5c0,1.35,1.14,2.51,2.5,2.5
				c4.75-0.03,9.46-0.74,14.15-1.43c-0.44-1.61-0.89-3.21-1.33-4.82c-3.41,1.1-6.77,2.33-10.09,3.7c-2.63,1.09-2.23,4.59,0.66,4.91
				c3.97,0.44,7.89,0.3,11.84-0.25c-0.44-1.61-0.89-3.21-1.33-4.82c-2.37,0.44-4.63,1.34-6.67,2.61c-1.95,1.22-1.34,4.9,1.26,4.66
				c3.1-0.28,6.2-0.57,9.29-0.85c-0.22-1.64-0.44-3.27-0.66-4.91c-2.8,0.51-5.47,1.45-8.01,2.72c-2.2,1.1-1.17,4.78,1.26,4.66
				c2.07-0.11,4.12-0.34,6.16-0.66c-0.44-1.61-0.89-3.21-1.33-4.82c-3.22,0.68-6.31,1.79-9.27,3.23c-2.31,1.13-1.09,4.63,1.26,4.66
				c1.77,0.02,3.54,0.04,5.3,0.06c-0.42-1.55-0.84-3.11-1.26-4.66c-1.19,0.66-2.38,1.32-3.56,1.98c-1.85,1.03-1.49,4.07,0.6,4.57
				c1.89,0.45,3.83,0.66,5.77,0.54c-0.42-1.55-0.84-3.11-1.26-4.66c-1.05,0.69-1.89,1.53-2.52,2.62c-0.61,1.06-0.36,2.89,0.9,3.42
				c1.2,0.51,2.39,0.95,3.67,1.22c-0.2-1.52-0.4-3.05-0.6-4.57c-1.13,0.65-1.74,1.53-2.23,2.72c-0.39,0.95,0.25,2.38,1.15,2.82
				c1.23,0.6,2.54,0.72,3.72-0.08c0.92-0.63,1.46-1.71,1.15-2.82c-0.52-1.86-0.72-3.68-0.63-5.61c0.14-3.22-4.86-3.21-5,0
				c-0.1,2.34,0.18,4.69,0.81,6.94c0.38-0.94,0.77-1.88,1.15-2.82c0.12-0.04,0.24-0.08,0.36-0.12c0.42,0.11,0.84,0.23,1.26,0.34
				c-0.1-0.05-0.19-0.09-0.29-0.14c0.38,0.94,0.77,1.88,1.15,2.82c-0.17,0.16-0.2,0.25-0.07,0.27c1.79-1.02,1.54-4.12-0.6-4.57
				c-0.83-0.17-1.69-0.38-2.47-0.71c0.3,1.14,0.6,2.28,0.9,3.42c0.2-0.34,0.4-0.61,0.73-0.83c1.93-1.27,1.37-4.82-1.26-4.66
				c-1.52,0.09-2.96,0-4.44-0.36c0.2,1.52,0.4,3.05,0.6,4.57c1.19-0.66,2.38-1.32,3.56-1.98c2.2-1.23,1.17-4.63-1.26-4.66
				c-1.77-0.02-3.54-0.04-5.3-0.06c0.42,1.55,0.84,3.11,1.26,4.66c2.57-1.25,5.28-2.13,8.08-2.73c1.32-0.28,2.09-1.83,1.75-3.08
				c-0.39-1.42-1.74-1.96-3.08-1.75c-1.6,0.25-3.21,0.4-4.83,0.48c0.42,1.55,0.84,3.11,1.26,4.66c2.16-1.08,4.44-1.79,6.81-2.22
				c2.74-0.5,2.15-5.17-0.66-4.91c-3.1,0.28-6.2,0.57-9.29,0.85c0.42,1.55,0.84,3.11,1.26,4.66c1.72-1.07,3.49-1.74,5.48-2.11
				c1.33-0.25,2.08-1.85,1.75-3.08c-0.4-1.44-1.73-1.93-3.08-1.75c-3.48,0.49-7.03,0.46-10.51,0.07c0.22,1.64,0.44,3.27,0.66,4.91
				c3.31-1.37,6.68-2.61,10.09-3.7c1.28-0.41,2.11-1.73,1.75-3.08c-0.39-1.43-1.73-1.95-3.08-1.75c-4.25,0.63-8.51,1.22-12.82,1.26
				c0,1.67,0,3.33,0,5c4.18-0.56,8.31-0.57,12.51-0.33c3.77,0.22,7.33-0.05,10.41-2.43c1.8-1.39,0.21-4.25-1.77-4.27
				c-7.99-0.07-15.88-1.15-23.6-3.22C244.94,267.92,243.62,272.74,246.73,273.58L246.73,273.58z"/>
		</g>
	</g>
	<g>
		<g>
			<path class="st3" d="M80.93,223.98c20.05,3.76,40.12,7.51,60.03,11.98c5.68,1.27,11.34,2.61,16.98,4.01
				c0.22-1.64,0.44-3.27,0.66-4.91c-10.23,0.07-20.47-0.4-30.65-1.45c-4.95-0.51-9.88-1.15-14.8-1.93c-2.5-0.4-5.01-0.81-7.5-1.3
				c-1.85-0.37-3.84-0.77-5.28-2.08c-0.81,1.39-1.62,2.79-2.43,4.18c17.48,3.74,35.39,5.5,53.26,5.14c2.36-0.05,4.73-0.23,7.09-0.06
				c2.43,0.18,4.47,1.49,6.63-0.28c1.41-1.16,0.66-3.84-1.1-4.18c-19.26-3.71-38.64-6.83-58.09-9.37c-1.34-0.18-2.5,1.27-2.5,2.5
				c0,1.5,1.15,2.32,2.5,2.5c19.01,2.48,37.94,5.56,56.76,9.19c-0.37-1.39-0.74-2.79-1.1-4.18c-0.07,0.06-0.15,0.12-0.22,0.18
				c0.37-0.21,0.74-0.43,1.1-0.64c0.21-0.07,0.14,0.06-0.13-0.07c-0.46-0.22-1.09-0.28-1.58-0.37c-1.06-0.18-2.13-0.29-3.2-0.33
				c-2.05-0.07-4.11,0.06-6.16,0.11c-4.21,0.08-8.42,0.05-12.63-0.1c-8.43-0.3-16.86-1.05-25.2-2.3c-4.73-0.71-9.43-1.57-14.1-2.57
				c-2.29-0.49-4.39,2.4-2.43,4.18c2.78,2.53,6.36,3.18,9.94,3.81c4.22,0.75,8.45,1.4,12.7,1.97c8.21,1.09,16.47,1.83,24.75,2.19
				c4.79,0.21,9.58,0.29,14.37,0.26c2.78-0.02,3.45-4.22,0.66-4.91c-19.8-4.92-39.81-8.95-59.86-12.76
				c-5.72-1.09-11.44-2.16-17.15-3.23c-1.33-0.25-2.7,0.37-3.08,1.75C78.85,222.12,79.59,223.73,80.93,223.98L80.93,223.98z"/>
		</g>
	</g>
	<g>
		<g>
			<path class="st3" d="M88.29,224.94c13.72,2.55,27.45,5.09,41.17,7.64c3.13,0.58,4.45-3.88,1.33-4.82
				c-8.29-2.49-16.82-4.01-25.36-5.38c-8.79-1.41-17.58-2.78-26.37-4.17c-1.33-0.21-2.69,0.34-3.08,1.75
				c-0.33,1.19,0.41,2.86,1.75,3.08c4.92,0.79,9.84,1.59,14.76,2.38c1.33,0.21,2.69-0.34,3.08-1.75c0.33-1.19-0.41-2.86-1.75-3.08
				c-4.92-0.79-9.84-1.59-14.76-2.38c-0.44,1.61-0.89,3.21-1.33,4.82c8.79,1.39,17.58,2.76,26.37,4.17
				c8.54,1.37,17.07,2.89,25.36,5.38c0.44-1.61,0.89-3.21,1.33-4.82c-13.72-2.55-27.45-5.09-41.17-7.64
				c-1.33-0.25-2.7,0.37-3.08,1.75C86.21,223.08,86.95,224.7,88.29,224.94L88.29,224.94z"/>
		</g>
	</g>
</g>
<g id="Sketch">
	<line class="st4" x1="76.63" y1="217.32" x2="77.73" y2="256.33"/>
	<line class="st1" x1="173.88" y1="234.35" x2="174.43" y2="274.11"/>
	<line class="st1" x1="173.88" y1="234.35" x2="187.62" y2="233.8"/>
	<line class="st1" x1="187.62" y1="233.8" x2="188.08" y2="267.85"/>
	<path class="st5" d="M137.62,264.57c0,0,16.48-29.67,12.64,0c0,0,26.92-6.75,16.48,9.54c-10.44,16.29-22.4,12.99-22.4,12.99
		S124.43,281.6,137.62,264.57"/>
	<line class="st6" x1="278.27" y1="217.87" x2="279.37" y2="327.21"/>
	<path class="st7" d="M270.93,324.46c0,0,29.73,4.93,26.02,34.62c-2.75,21.98-31.81,33.47-31.81,33.47"/>
	<path class="st2" d="M390,276.05"/>
	<g class="st8">
		<g>
			<path class="st3" d="M275.86,273.91c3.22,0,3.22-5,0-5C272.64,268.91,272.64,273.91,275.86,273.91L275.86,273.91z"/>
		</g>
	</g>
	<g class="st8">
		<g>
			<path class="st3" d="M273.93,269.93c-0.08,0.12-0.15,0.25-0.21,0.38c-0.14,0.31-0.29,0.63-0.38,0.95
				c-0.04,0.13-0.07,0.26-0.09,0.4c-0.05,0.35-0.12,0.71-0.12,1.07c-0.01,0.34,0.06,0.67,0.22,0.96c0.1,0.31,0.27,0.58,0.52,0.8
				c0.23,0.24,0.49,0.42,0.8,0.52c0.3,0.16,0.62,0.23,0.96,0.22c0.22-0.03,0.44-0.06,0.66-0.09c0.42-0.12,0.79-0.33,1.1-0.64
				c0.13-0.17,0.26-0.34,0.39-0.51c0.23-0.39,0.34-0.81,0.34-1.26c0-0.12,0.01-0.24,0.03-0.35c-0.03,0.22-0.06,0.44-0.09,0.66
				c0.04-0.26,0.11-0.51,0.21-0.76c-0.08,0.2-0.17,0.4-0.25,0.6c0.06-0.15,0.14-0.29,0.23-0.43c0.18-0.29,0.28-0.6,0.3-0.93
				c0.07-0.33,0.06-0.66-0.04-1c-0.08-0.33-0.23-0.61-0.45-0.85c-0.18-0.27-0.41-0.49-0.7-0.64c-0.2-0.08-0.4-0.17-0.6-0.25
				c-0.44-0.12-0.89-0.12-1.33,0c-0.2,0.08-0.4,0.17-0.6,0.25C274.45,269.25,274.15,269.55,273.93,269.93L273.93,269.93z"/>
		</g>
	</g>
	<g class="st8">
		<g>
			<path class="st3" d="M273.8,272.07c0,0.74,0,1.47,0,2.21c-0.01,0.34,0.06,0.67,0.22,0.96c0.1,0.31,0.27,0.58,0.52,0.8
				c0.23,0.24,0.49,0.42,0.8,0.52c0.3,0.16,0.62,0.23,0.96,0.22c0.22-0.03,0.44-0.06,0.66-0.09c0.42-0.12,0.79-0.33,1.1-0.64
				c0.13-0.17,0.26-0.34,0.39-0.51c0.23-0.39,0.34-0.81,0.34-1.26c0-0.74,0-1.47,0-2.21c0.01-0.34-0.06-0.67-0.22-0.96
				c-0.1-0.31-0.27-0.58-0.52-0.8c-0.23-0.24-0.49-0.42-0.8-0.52c-0.3-0.16-0.62-0.23-0.96-0.22c-0.22,0.03-0.44,0.06-0.66,0.09
				c-0.42,0.12-0.79,0.33-1.1,0.64c-0.13,0.17-0.26,0.34-0.39,0.51C273.92,271.2,273.8,271.62,273.8,272.07L273.8,272.07z"/>
		</g>
	</g>
	<g class="st8">
		<g>
			<path class="st3" d="M78.77,217.59c-0.07,0-0.15,0-0.22,0c-0.34-0.01-0.67,0.06-0.96,0.22c-0.31,0.1-0.58,0.27-0.8,0.52
				c-0.24,0.23-0.42,0.49-0.52,0.8c-0.16,0.3-0.23,0.62-0.22,0.96c0.03,0.22,0.06,0.44,0.09,0.66c0.12,0.42,0.33,0.79,0.64,1.1
				c0.17,0.13,0.34,0.26,0.51,0.39c0.39,0.23,0.81,0.34,1.26,0.34c0.07,0,0.15,0,0.22,0c0.34,0.01,0.67-0.06,0.96-0.22
				c0.31-0.1,0.58-0.27,0.8-0.52c0.24-0.23,0.42-0.49,0.52-0.8c0.16-0.3,0.23-0.62,0.22-0.96c-0.03-0.22-0.06-0.44-0.09-0.66
				c-0.12-0.42-0.33-0.79-0.64-1.1c-0.17-0.13-0.34-0.26-0.51-0.39C79.64,217.7,79.22,217.59,78.77,217.59L78.77,217.59z"/>
		</g>
	</g>
	<g class="st8">
		<g>
			<path class="st3" d="M78.55,221.93c3.22,0,3.22-5,0-5C75.33,216.93,75.33,221.93,78.55,221.93L78.55,221.93z"/>
		</g>
	</g>
	<g class="st8">
		<g>
			<path class="st3" d="M79.65,217.04c-0.45-0.07-0.91-0.14-1.36-0.15c-0.37-0.01-0.72,0.04-1.08,0.09
				c-0.35,0.05-0.7,0.09-1.04,0.19c-0.44,0.13-0.86,0.32-1.28,0.5c-0.38,0.22-0.67,0.52-0.9,0.9c-0.23,0.39-0.34,0.81-0.34,1.26
				c0.02,0.51,0.12,1.03,0.4,1.47c0.25,0.41,0.44,0.6,0.79,0.86c0.33,0.25,0.63,0.43,1.05,0.54c0.51,0.13,1.03,0.13,1.54-0.01
				c0.33-0.08,0.61-0.23,0.85-0.45c0.27-0.18,0.49-0.41,0.64-0.7c0.18-0.29,0.28-0.6,0.3-0.93c0.07-0.33,0.06-0.66-0.04-1
				c-0.2-0.6-0.57-1.19-1.15-1.49c-0.6-0.32-1.26-0.43-1.93-0.25c-0.02,0.01-0.05,0.01-0.07,0.02c0.22-0.03,0.44-0.06,0.66-0.09
				c-0.04,0-0.07,0-0.11,0c0.22,0.03,0.44,0.06,0.66,0.09c-0.05-0.01-0.09-0.02-0.14-0.04c0.2,0.08,0.4,0.17,0.6,0.25
				c-0.03-0.02-0.06-0.03-0.09-0.06c0.17,0.13,0.34,0.26,0.51,0.39c-0.04-0.03-0.07-0.06-0.1-0.1c0.13,0.17,0.26,0.34,0.39,0.51
				c-0.02-0.03-0.04-0.06-0.06-0.09c0.08,0.2,0.17,0.4,0.25,0.6c-0.02-0.05-0.03-0.09-0.04-0.14c0.03,0.22,0.06,0.44,0.09,0.66
				c0-0.01,0-0.02,0-0.04c-0.41,0.72-0.83,1.44-1.24,2.16c0.05-0.02,0.09-0.04,0.14-0.06c-0.2,0.08-0.4,0.17-0.6,0.25
				c0.4-0.17,0.82-0.28,1.25-0.34c-0.22,0.03-0.44,0.06-0.66,0.09c0.43-0.06,0.87-0.06,1.3,0c-0.22-0.03-0.44-0.06-0.66-0.09
				c0.05,0.01,0.1,0.01,0.15,0.02c0.33,0.1,0.66,0.12,1,0.04c0.33-0.02,0.64-0.11,0.93-0.3c0.29-0.16,0.53-0.37,0.7-0.64
				c0.22-0.24,0.37-0.52,0.45-0.85c0.03-0.22,0.06-0.44,0.09-0.66c0-0.45-0.12-0.87-0.34-1.26c-0.13-0.17-0.26-0.34-0.39-0.51
				C80.44,217.37,80.08,217.16,79.65,217.04L79.65,217.04z"/>
		</g>
	</g>
	<g class="st8">
		<g>
			<path class="st3" d="M80.76,217.27c-2.12-0.53-4.23-1.05-6.35-1.58c-0.64-0.16-1.35-0.08-1.93,0.25c-0.52,0.3-1.01,0.9-1.15,1.49
				c-0.29,1.29,0.39,2.74,1.75,3.08c2.12,0.53,4.23,1.05,6.35,1.58c0.64,0.16,1.35,0.08,1.93-0.25c0.52-0.3,1.01-0.9,1.15-1.49
				C82.8,219.05,82.12,217.61,80.76,217.27L80.76,217.27z"/>
		</g>
	</g>
</g>
<g id="base_layer">
	<path class="st7" d="M232.94,403.25"/>
	<path class="st7" d="M229.33,418.07"/>
	<path class="st7" d="M264.3,402.25c2.41-19.14,4.96-44,6.31-72.14c0.5-10.48,0.95-24.27-6.88-38.35
		c-2.68-4.83-6.09-9.19-10.18-13.12c-22.63-21.77-60.55-12.11-65.48-10.78c-4.5,2.1-9.05,4.19-13.65,6.26
		c-21.07,9.48-41.8,17.99-62.09,25.63c-6.51,2.45-10.95,2.47-16.93,2.27c-14.64-0.49-25.83-7.24-31.95-11.72
		c-8.47,33.76-1.29,64.97,17.68,76.59c12.65,7.75,29.57,6.16,40.33,5.19c6.85-0.62,21.99-2.16,38.13-11.88
		c20.38-12.26,29.9-30.05,33.52-37.91c0,0,37.91-47.25,43.41,17.58c0,19.78,0,39.56,0,59.34c-1.39,1.26-2.58,2.63-3.58,4.06
		c0,0-12.76,7.73,3.58,17.46s14.57,14.16,24.3,11.94"/>
	<path class="st1" d="M294.21,273.36"/>
	<path class="st1" d="M296.96,287.1"/>
	<path class="st9" d="M76.63,217.32l1.1,39.01l1.33,5.74c0,0-3.53,22.27,58.56,2.5c0,0-11.84,15.94,6.72,22.53
		c0,0-64.96,44.51-100.68-20.88c-1.62-4.8-3.9-13.63-2.68-24.66c0.11-0.97,1.45-12.22,7.14-22.01c5.09-8.75,11.85-13.28,15.45-15.78
		c13.54-9.38,27.71-10.95,35.03-11.18c12.83-3.81,28.8-7,47.25-7.76c28.16-1.17,65.38,3.09,101.65,24.79l4.95,4.4l-64.6,14.29
		l-13.69,0.55l-88.74-17.58l-4.09,6.87L76.63,217.32l97.25,17.03"/>
	
		<ellipse transform="matrix(0.9905 -0.1375 0.1375 0.9905 -21.5806 24.3628)" class="st5" cx="165.52" cy="168.35" rx="36.47" ry="45.04"/>
	<path class="st7" d="M-116.78,164.57"/>
	<polyline class="st1" points="252.45,214.02 267.84,211.27 274.68,218.5 	"/>
	<path class="st7" d="M236.52,399.19c-0.11-4.22-0.23-8.45-0.34-12.67c2.63-13.69,4.35-33.29-0.79-55.56
		c-1.51-6.54-3.42-12.48-5.48-17.8l-19.35-5.48c-8.73,2-22.71,22.39-22.71,22.39c-3.63,5.79-8.97,13.04-16.61,20.21
		c-6.06,5.69-12.01,9.89-17.04,12.93c9.18,1.4,19.25,2.51,30.08,3.1c14.76,0.8,28.28,0.47,40.26-0.44
		c-13.41,2.71-26.84,5.28-40.26,7.96c-18.42,3.68-19.29,3.93-22.48,3.91c-14.44-0.1-21.39-5.26-25.83-1.62
		c-2.63,2.16-4.64,7.62,0.09,23.08c17.39,1.32,36.17,2.06,56.17,1.88C207.8,400.93,222.59,400.25,236.52,399.19z"/>
	<path class="st7" d="M355.49,384"/>
	<path class="st7" d="M159.95,423.37"/>
	<path class="st7" d="M374.07,353.47"/>
	<path class="st2" d="M121.46,376.48c-3.8-0.11-8.12-0.02-12.83,0.44c-4.96,0.49-9.41,1.3-13.27,2.21
		c-2.06,10.03-4.13,20.06-6.19,30.08c-0.25,0.86-1.54,5.73,1.33,10.18c0.64,0.99,3.31,5.12,7.54,4.9c3.37-0.18,6.49-3.05,7.5-7.11
		c2.33-3.89,4.84-7.88,7.52-11.94c1.92-2.9,3.84-5.7,5.75-8.41c5.75,0.79,11.5,1.57,17.25,2.36c-0.63-4.05-1.06-8.88-0.88-14.3
		c0.1-3.18,0.4-6.12,0.79-8.77C131.13,376.23,126.3,376.35,121.46,376.48z"/>
	<path class="st1" d="M-64.34,352.14"/>
	<path class="st7" d="M386.02,415.85"/>
	<path class="st1" d="M384.25,420.72"/>
	<path class="st1" d="M-72.75,316.75"/>
	<path class="st7" d="M167.03,413.64"/>
	<path class="st7" d="M445.74,335.78"/>
	<path class="st2" d="M233.75,403.39c-2.13,1.41-5.21,3.9-7.06,7.65c-3.35,6.83-1.18,14.98,5.41,20.79c6.35,0.53,13.43,1.45,20.99,3
		c6.13,1.25,11.68,2.73,16.63,4.28c8.89,4.46,19.33,2.03,23.52-3.5c3.7-4.88,1.49-10.8,1.16-11.65c-4.67-0.96-9.59-2.13-14.7-3.56
		c-3.99-1.11-7.76-2.29-11.3-3.5c-2.72-3.78-3.2-6.99-3.15-9.22c0.04-1.66,0.38-2.68,1.26-6.9c0.69-3.3,1.18-6.01,1.49-7.82
		c-9.99-1.74-19.99-3.48-29.98-5.22c-0.79,1.97-1.54,4.11-2.22,6.41C234.81,397.5,234.17,400.61,233.75,403.39z"/>
	<path class="st2" d="M378.05,414.52"/>
	<path class="st7" d="M428.93,354.8"/>
	<line class="st1" x1="167.03" y1="264.57" x2="155.97" y2="272.54"/>
	<line class="st1" x1="158.15" y1="263.3" x2="151.12" y2="268.55"/>
	<line class="st1" x1="168.94" y1="269.38" x2="161.5" y2="276.05"/>
	<path class="st5" d="M278.81,271.46c0,0-13.57,3.82-12.58,14.44s12.58,12.61,12.58,12.61"/>
	<line class="st1" x1="278.89" y1="278.6" x2="267.67" y2="279.37"/>
	<line class="st1" x1="278.82" y1="284.98" x2="266.24" y2="285.9"/>
	<line class="st1" x1="279.01" y1="291.37" x2="268.46" y2="292.12"/>
</g>
<g id="shoes">
</g>
<g id="text">
	<line class="st10" x1="187.62" y1="233.8" x2="278.27" y2="217.87"/>
</g>
</svg>
